<svg id="Layer_1" xmlns="http://www.w3.org/2000/svg" version="1.1" viewBox="0 0 400 300">
  
  <defs>
    <style>
      .st0 {
        fill: #55c1ef;
      }

      .st1 {
        fill: #e06aa3;
      }
    </style>
  </defs>
  <path class="st0" d="M192.08,113.67c6.34,0,12.68,0,19.02,0,1.77,0,3.53-.03,5.3-.08,2.08-.05,4.16-.12,6.24-.21,2.34-.1,4.68-.23,7.03-.36,2-.11,3.99-.24,5.99-.37,1.67-.11,3.33-.23,5-.37,1.9-.17,3.79-.36,5.69-.55,1.88-.19,3.76-.37,5.64-.58,1.49-.17,2.98-.35,4.46-.58,2.7-.41,5.4-.81,8.08-1.31,3.45-.64,6.88-1.42,10.22-2.52,1.8-.59,3.56-1.29,5.21-2.23,1.02-.58,1.93-1.28,2.64-2.21,1.1-1.44,1.21-3.09-.24-4.44-1.92-1.79-4.41-2.66-6.89-3.34-2.77-.75-5.56-1.45-8.38-1.96-1.5-.27-3.01-.54-4.51-.8-.3-.05-.46-.19-.45-.53.02-.7,0-1.41,0-2.11,0-.29.1-.42.38-.38.66.09,1.33.2,1.99.29,1.59.22,3.19.41,4.78.64,2.81.42,5.62.84,8.41,1.32,3.43.6,6.86,1.24,10.26,1.99,3.87.85,7.68,1.95,11.39,3.35,1.85.7,3.65,1.5,5.32,2.59.87.57,1.72,1.22,2.43,1.97,1.57,1.64,1.76,3.21.5,5.42-.95,1.66-2.45,2.8-4.04,3.82-2.28,1.45-4.74,2.58-7.3,3.46-1.78.62-3.54,1.29-5.35,1.83-2.18.66-4.39,1.22-6.6,1.76-2.05.5-4.11.94-6.17,1.36-1.83.37-3.68.68-5.53.99-2.42.4-4.84.77-7.26,1.14-1.51.23-3.03.44-4.55.62-1.39.17-2.79.27-4.19.43-1.46.17-2.9.4-4.36.57-.96.11-1.93.16-2.89.25-2.22.21-4.44.45-6.66.64-1.48.13-2.96.21-4.44.3-3.15.19-6.3.38-9.45.54-2.64.13-5.28.24-7.92.32-3.33.1-6.66.18-9.99.25-2.22.05-4.44.1-6.66.09-2.47,0-4.94-.08-7.42-.12-2.02-.03-4.04-.03-6.06-.06-2.66-.05-5.32-.1-7.98-.19-2.61-.09-5.22-.23-7.82-.37-1.98-.11-3.96-.22-5.94-.38-2.35-.19-4.69-.43-7.04-.63-2.12-.18-4.24-.29-6.35-.5-1.72-.17-3.44-.45-5.15-.65-1.63-.2-3.26-.35-4.88-.55-1.42-.17-2.85-.37-4.27-.58-2.21-.33-4.41-.66-6.62-1.02-4.64-.75-9.26-1.63-13.8-2.83-3.16-.83-6.3-1.77-9.4-2.8-2.58-.86-6.6-2.71-8.85-4.24-1.37-.93-2.61-2.01-3.48-3.47-.76-1.3-1.01-2.71-.4-4.13.58-1.33,1.84-2.19,2.99-2.99.96-.66,1.97-1.25,3.04-1.71,3.81-1.65,7.73-2.91,11.75-3.86,2.47-.58,4.95-1.17,7.44-1.66,2.87-.57,5.76-1.06,8.65-1.52,2.41-.39,4.81-.79,7.24-1.05.46-.05.45.06.44.75-.01.64,0,1.28.04,1.92.01.3-.13.42-.39.48-2.71.6-5.44,1.14-8.13,1.81-2.22.55-4.38,1.33-6.28,2.64-.69.48-1.37,1.07-1.85,1.76-.77,1.11-.49,2.6.51,3.75,1.4,1.6,3.27,2.53,5.21,3.32,2.28.93,4.64,1.64,7.03,2.21,1.95.46,3.91.93,5.88,1.28,2.79.5,5.61.9,8.42,1.32,1.5.23,3,.44,4.5.62,1.63.19,3.26.34,4.89.5,2.11.21,4.23.42,6.34.61,1.18.1,2.37.16,3.56.23,2.15.13,4.3.26,6.46.38,1.94.11,3.87.2,5.81.28,2.33.1,4.66.19,6.99.28.94.04,1.87.09,2.81.14,0,0,0,.02,0,.03Z"></path>
  <path class="st0" d="M201.21,102.22c18.96,0,37.92,0,56.89,0,1.02,0,2.03-.04,3.05-.06.91-.02.97-.08.97-1.01,0-2.3,0-4.59,0-6.89,0-.25,0-.5,0-.75,0-.53.03-.56.57-.47.92.16,1.84.33,2.76.49,3.11.53,6.2,1.15,9.22,2.07,1.62.49,3.21,1.12,4.77,1.79.72.31,1.38.81,1.97,1.33.86.75,1.03,1.56.26,2.62-.52.71-1.23,1.34-1.98,1.82-1.96,1.26-4.15,2.04-6.38,2.68-2.09.59-4.18,1.16-6.3,1.62-2.58.55-5.18,1.02-7.78,1.45-2.4.4-4.81.73-7.23,1.03-1.97.24-3.94.4-5.92.6-1.71.17-3.41.36-5.12.52-1.01.09-2.03.14-3.04.22-1.51.11-3.02.23-4.53.34-.76.05-1.53.09-2.29.13-2.81.15-5.62.3-8.43.46-.13,0-.25.01-.38.01-3.82.07-7.63.14-11.45.21-3.71.06-7.42.17-11.12.15-4.16-.02-8.32-.16-12.48-.27-1.56-.04-3.12-.11-4.68-.19-1.87-.09-3.75-.18-5.62-.28-2.04-.11-4.09-.23-6.13-.38-2.12-.16-4.23-.36-6.35-.54-1.8-.16-3.61-.3-5.41-.49-1.94-.21-3.86-.51-5.8-.73-1.29-.15-2.58-.29-3.86-.5-2.56-.41-5.11-.83-7.65-1.34-2.4-.48-4.79-1.03-7.16-1.65-2.47-.64-4.87-1.49-7.12-2.72-.92-.5-1.7-1.18-2.36-1.98-.7-.85-.63-2.1.19-2.83,1.93-1.71,3.69-2.42,6.04-3.19,2.79-.92,4.63-1.24,6.95-1.56.35-.05,1.14-.03,1.48-.12.44-.12.53-.06.53.4,0,.92-.02,1.84-.03,2.77,0,1.39,0,2.78,0,4.17,0,.22.04.43.07.65.04.28.22.38.5.38,1.03.01,2.07.06,3.1.06,19.09,0,38.17,0,57.26,0h0Z"></path>
  <path class="st1" d="M261.27,60.02h-119.7v9.51s1.69-7.06,13.35-7.06c0,0,5.22-.77,12.43,4.14,4.33,2.95,10.42,2.63,14.61,1.91,2.36-.41,4.63-1.21,6.8-2.22,3.1-1.44,9.39-3.76,16.8-3.23,10.59.77,14.43,4.14,14.43,4.14,0,0,8.59,6.29,19.95,1.23,10.88-4.85,7.82-6.18,17.38-6.15.96,0,1.92.26,2.72.78.49.31.77,1.06,1.23,1.07.21,0,0-4.14,0-4.14Z"></path>
  <path class="st1" d="M144.79,58.64l78.73-25.17s-4.41,7.79,0,12.58c0,0,5.37,5.68,17.65,1.23,0,0,8.18-3.04,4.91-11.36l3.53-.31s10.06,5.22,11.94,23.02h-116.75Z"></path>
  <rect class="st1" x="141.57" y="77.06" width="119.98" height="8.59"></rect>
  <g>
    <path class="st1" d="M224.3,45.33c-.05-.05-.1-.1-.14-.16-.59-.71-1-1.51-1.25-2.39-.14-.49-.23-.98-.27-1.48,0-.05,0-.1-.01-.15,0-.01,0-.02,0-.04,0,0,.02-.01.03-.02.37-.08.69-.24.98-.46.21-.16.39-.35.53-.57.17-.28.29-.58.25-.92-.03-.29-.17-.53-.42-.69-.29-.18-.61-.23-.95-.18-.08.01-.16.03-.26.04,0-.04,0-.06,0-.09.12-.68.33-1.34.55-2,.05-.15.1-.29.16-.44.01-.03.02-.06.04-.09.02,0,.03,0,.05,0,.17.07.34.1.52.09.19,0,.38-.04.57-.1.23-.07.44-.18.64-.31.27-.19.5-.42.67-.7.1-.16.17-.33.21-.51.07-.36.01-.7-.27-.97-.14-.14-.32-.22-.52-.26-.2-.04-.41-.05-.61-.01-.01,0-.03,0-.05,0,.01-.03.02-.06.03-.08.63-1.21,1.35-2.37,2.24-3.42.66-.78,1.39-1.49,2.22-2.09.86-.61,1.79-1.08,2.81-1.36.5-.14,1.01-.23,1.52-.26.26-.02.51-.04.77-.04.35,0,.69.02,1.03.07.19.03.39.07.58.11.03,0,.05.02.1.03-.11.05-.2.09-.3.14-.29.14-.53.34-.74.58-.15.17-.26.35-.34.56-.09.22-.13.44-.08.67.05.27.19.5.44.64.28.17.59.21.91.16.15-.02.3-.05.44-.11.17-.06.33-.14.49-.24.25-.16.47-.36.65-.6.11-.15.19-.32.26-.5.06-.17.08-.35.06-.53,0-.02,0-.04,0-.07.04.02.08.04.11.06.4.25.77.53,1.14.82,1.44,1.12,2.71,2.4,3.8,3.86.81,1.09,1.48,2.25,1.98,3.51.34.86.59,1.74.74,2.65.12.72.17,1.44.16,2.17,0,.13.01.13-.14.18-.28.09-.52.23-.75.4-.21.16-.39.35-.53.57-.17.28-.29.59-.25.93.04.3.18.53.44.69.13.08.27.14.42.16.04,0,.09.02.14.03-.02.05-.03.09-.05.13-.35.7-.8,1.32-1.36,1.87-.68.68-1.47,1.22-2.32,1.67-.23.12-.46.22-.69.33-.03.01-.06.02-.1.04-.03-.08-.05-.15-.08-.22-.07-.2-.19-.35-.37-.46-.29-.18-.6-.22-.93-.18-.16.02-.31.05-.46.11-.2.08-.39.17-.57.3-.21.15-.4.33-.55.54-.12.16-.21.34-.27.52-.03.11-.06.21-.06.33,0,.05-.03.07-.07.08-.26.04-.53.09-.79.14-.2.03-.4.06-.6.08-.03,0-.06,0-.11,0,0-.04,0-.07,0-.1,0-.08.01-.17,0-.25-.04-.39-.23-.66-.6-.82-.26-.11-.52-.13-.8-.08-.35.05-.67.19-.96.39-.27.18-.5.41-.67.69-.04.07-.07.15-.11.22-.04.08-.05.09-.14.09-.47-.01-.95-.04-1.42-.09-.06,0-.12-.01-.19-.02-.04,0-.07-.03-.08-.07-.08-.24-.23-.41-.45-.52-.09-.05-.19-.08-.28-.1-.26-.08-.53-.04-.79.01-.16.03-.31.09-.45.16-.06.03-.12.06-.18.1-.04.03-.09.03-.14.02-1.02-.24-2-.57-2.89-1.14-.33-.21-.64-.44-.92-.71-.01-.01-.03-.03-.04-.04,0,0,0,0,0-.01.06.03.11.05.17.08.23.09.48.12.73.09.17-.02.33-.06.49-.12.24-.09.46-.21.66-.37.21-.17.4-.36.54-.59.17-.27.28-.57.24-.9-.03-.3-.17-.54-.43-.71-.29-.18-.6-.23-.94-.18-.16.02-.31.05-.46.11-.24.09-.46.21-.66.37-.21.16-.39.35-.53.57-.18.29-.29.59-.25.94.01.13.06.24.11.37ZM242.62,41.38c0-.11-.02-.23-.06-.34-.06-.15-.15-.29-.28-.39-.28-.22-.6-.28-.94-.25-.22.02-.44.08-.65.17-.25.11-.47.25-.67.42-.24.21-.43.45-.55.75-.05.13-.1.27-.11.41-.03.37.08.68.38.9.24.18.53.24.83.22.25-.01.48-.07.71-.17.24-.1.46-.24.66-.41.24-.21.44-.46.56-.75.07-.18.13-.35.12-.56ZM231.21,33.19c0-.17-.04-.33-.13-.49-.14-.24-.35-.38-.6-.45-.38-.11-.75-.05-1.1.08-.22.08-.43.2-.62.35-.36.28-.63.61-.76,1.05-.09.3-.07.58.09.85.11.18.26.3.45.39.12.06.25.08.38.1.1.01.21.02.31,0,.22-.02.44-.07.65-.16.26-.11.49-.26.7-.44.23-.21.41-.44.53-.73.07-.17.13-.35.12-.55ZM230.98,38.55c-.01.19.04.36.14.53.08.13.18.23.3.31.14.08.28.13.44.16.26.06.51.01.75-.05.21-.05.42-.14.6-.26.19-.12.37-.26.53-.43.16-.18.3-.37.39-.59.05-.13.1-.26.11-.41,0-.16,0-.32-.06-.48-.06-.15-.14-.28-.27-.38-.26-.21-.57-.29-.89-.27-.24.01-.48.07-.71.17-.24.1-.46.24-.66.42-.24.21-.44.46-.56.75-.07.17-.13.34-.11.52ZM232.92,33c0,.12.02.24.06.36.06.16.15.3.29.41.21.17.45.24.71.25.29.02.57-.05.84-.16.25-.1.48-.25.69-.42.29-.26.52-.56.63-.95.07-.23.08-.45,0-.68-.1-.27-.28-.45-.54-.56-.1-.05-.21-.06-.32-.08-.13-.03-.26-.03-.39,0-.21.03-.42.08-.62.16-.25.11-.47.25-.67.42-.24.21-.43.45-.55.75-.07.17-.12.34-.12.53ZM244.27,36c.01-.28-.09-.52-.28-.71-.21-.2-.47-.29-.75-.3-.3-.02-.59.05-.87.16-.26.11-.5.26-.71.45-.18.17-.34.35-.46.57-.08.15-.14.3-.17.47-.03.19-.03.38.04.56.06.16.16.3.3.41.28.22.61.28.95.24.22-.02.43-.08.63-.16.25-.11.47-.25.67-.42.24-.21.43-.45.55-.74.07-.17.13-.34.12-.52ZM237.76,32.22c0,.12.01.24.06.36.07.19.19.34.37.45.14.09.3.14.47.17.25.05.5.01.74-.05.21-.05.41-.14.59-.26.19-.12.37-.26.53-.43.16-.18.3-.37.38-.59.05-.13.11-.27.11-.42,0-.16,0-.32-.06-.47-.06-.15-.15-.29-.28-.39-.25-.2-.55-.27-.86-.26-.25.01-.49.07-.72.17-.25.1-.47.25-.67.42-.24.21-.44.46-.56.75-.07.17-.13.34-.11.53ZM237.34,42.1c0-.11-.01-.23-.06-.34-.06-.16-.15-.29-.28-.4-.2-.16-.43-.23-.68-.25-.28-.03-.56.03-.82.13-.22.08-.42.2-.61.34-.21.16-.39.35-.54.57-.1.15-.18.32-.23.5-.08.29-.07.56.08.83.13.24.35.38.6.45.38.11.75.05,1.11-.08.21-.08.41-.19.59-.33.31-.23.56-.51.71-.88.07-.17.13-.35.12-.55ZM239.44,36.79c.01-.3-.09-.54-.3-.74-.16-.14-.35-.22-.56-.26-.34-.07-.67,0-.98.11-.14.05-.28.12-.41.2-.19.12-.37.25-.52.42-.16.18-.3.37-.39.59-.05.13-.1.25-.11.39-.01.17-.01.33.06.5.06.15.15.28.27.39.2.17.45.24.71.26.3.02.59-.05.87-.16.25-.1.48-.24.68-.42.24-.21.44-.46.56-.75.07-.17.13-.34.12-.52ZM229.26,38.48c0-.12-.01-.24-.06-.36-.06-.16-.15-.29-.28-.4-.21-.17-.46-.24-.73-.25-.26-.01-.52.04-.76.13-.22.08-.43.2-.62.35-.36.28-.63.62-.76,1.06-.07.23-.07.45,0,.68.06.17.16.31.3.42.21.16.45.23.7.25.29.02.57-.05.84-.16.25-.1.48-.25.69-.42.24-.21.44-.46.56-.75.07-.17.13-.35.12-.53ZM229.24,44.04c0,.12.01.24.06.36.06.15.15.29.28.39.21.17.45.24.71.25.3.02.58-.05.85-.16.26-.1.49-.25.7-.44.25-.22.45-.47.57-.78.05-.13.1-.26.1-.4,0-.15,0-.3-.06-.45-.06-.15-.15-.29-.28-.39-.22-.18-.47-.25-.75-.26-.28-.01-.55.06-.82.16-.26.1-.49.25-.69.43-.24.21-.43.45-.55.75-.07.17-.13.34-.12.53ZM233.08,27.81c.02-.3-.13-.58-.29-.72-.21-.2-.47-.28-.76-.3-.3-.02-.58.05-.86.16-.25.1-.47.24-.67.41-.26.22-.46.49-.59.81-.05.12-.09.24-.09.37,0,.16,0,.32.06.47.06.16.16.3.29.41.21.17.45.24.71.25.29.02.57-.05.84-.16.25-.1.48-.24.68-.42.24-.21.44-.46.57-.76.07-.17.13-.34.12-.52Z"></path>
    <path class="st1" d="M249.36,34.43s-.03-.01-.05-.02c-.33-.14-.68-.2-1.03-.25-.51-.06-1.02-.07-1.53-.05-.22,0-.43.03-.65.04-.03,0-.06,0-.09,0,0-.02-.01-.03-.02-.04-.23-.76-.58-1.46-.99-2.14-.55-.92-1.2-1.78-1.91-2.59-.3-.34-.61-.67-.92-1-.04-.05-.05-.09-.04-.15.15-.67.29-1.34.44-2.01.08-.37.16-.74.24-1.1,0-.02.01-.04.02-.07.03.03.05.06.07.08.37.47.61,1.01.73,1.59.12.57.14,1.15.06,1.73-.03.22-.08.44-.12.66,0,.04,0,.08.01.12.1.19.26.27.47.23.13-.02.24-.08.35-.15.41-.28.85-.49,1.3-.69.87-.37,1.77-.64,2.7-.84.13-.03.26-.05.39-.08.03,0,.05,0,.09-.01-.08.15-.08.15-.33.5-.65.9-1.4,1.71-2.23,2.43-.15.13-.3.26-.44.39-.11.1-.2.21-.29.32-.1.12-.16.26-.18.42-.03.27.08.49.27.68.03.03.06.02.09.02.17-.01.34-.04.51-.04.48-.02.95.07,1.39.26.56.25,1,.64,1.35,1.14.12.16.21.34.31.52.02.03.03.06.04.09,0,0-.01,0-.02.01Z"></path>
  </g>
  <path class="st0" d="M113.48,254.09c.07-.05.18-.08.22-.15,1.82-3.03,3.61-6.09,5.47-9.1,2.67-4.32,5.36-8.62,8.09-12.9,3.93-6.16,7.95-12.27,12.29-18.17,3.31-4.5,6.83-8.82,10.52-13.02,1.26-1.43,2.25-1.33,4.7.35.94.65,1.81,1.4,2.59,2.24,1,1.09,1.11,1.52.41,2.31-1.61,1.83-2.85,3.91-4.1,5.98-3.59,5.94-6.78,12.09-9.69,18.39-1.83,3.98-3.5,8.03-4.98,12.16-1.12,3.13-2.09,6.29-2.78,9.55-.48,2.27-.64,4.57-.49,6.88.04.72.27,1.44.5,2.13.26.82.9,1.46,1.7,1.75,1.57.56,3.19.69,4.82.46.82-.11,1.62-.34,2.42-.55.4-.1.82-.11,1.02.23.15.25.17.7.04.96-.75,1.46-1.84,2.53-3.6,2.62-1.37.08-2.75.21-4.13.16-2.14-.08-4.23-.48-6.14-1.53-1.9-1.05-3.01-2.72-3.57-4.74-.36-1.31-.64-2.68-.69-4.03-.05-1.39.17-2.8.37-4.18.96-6.53,3.25-12.69,5.66-18.79.73-1.84,1.57-3.63,2.38-5.44.06-.14.11-.26.21-.53-.18.08-.28.1-.32.15-3.34,4.88-6.72,9.74-9.98,14.67-2.88,4.35-5.63,8.78-8.44,13.18-.44.68-.85,1.38-1.28,2.07-1.23,1.97-2.8,3.61-4.94,4.61-1.49.69-3,.93-4.55.07-1.31-.73-1.95-1.86-2.13-3.28-.26-2.08.27-4.08.79-6.06.78-3,1.74-5.95,2.94-8.8,2.32-5.53,4.73-11.02,7.15-16.51.7-1.6,1.5-3.15,2.25-4.74.13-.28.2-.58.2-.88-.69.99-1.36,2-2.08,2.97-2.71,3.63-5.41,7.27-8.16,10.87-1.9,2.48-3.83,4.94-5.82,7.35-1.77,2.13-3.63,4.18-5.48,6.24-1.92,2.14-3.82,4.31-5.85,6.34-2.32,2.33-4.91,4.35-7.91,5.79-1.36.65-2.83,1.12-4.33,1.19-4.36.2-7.33-2.3-8.84-7.3-.32-1.06-.53-2.17-.66-3.27-.12-.95-.27-1.9-.3-2.85-.1-2.87.4-5.68,1.18-8.43.54-1.9,1.72-6.29,5.31-11.13,1.75-2.31,3.87-4.22,6.47-5.54,2.12-1.08,4.37-1.68,6.77-1.78,1.25-.05,3.21.34,4.26,1.02,2.36,1.51,4.35,4.38,4.46,7.41.26,1.62.07,3.17-.76,4.61-1.15,2-2.73,3.57-4.79,4.62-.43.22-.9.37-1.37.46-1.14.22-1.92-.67-1.65-1.89.27-1.22.61-2.42.84-3.64.36-1.87.75-3.84-.08-5.62-1.07-2.3-4.68-.85-5.78-.38-2.44,1.04-4.36,2.8-5.88,4.95-.55.78-.97,1.63-1.47,2.45-1.63,2.7-2.4,5.69-2.98,8.74-.39,2.05-.37,4.13-.18,6.2.15,1.64.66,3.19,1.63,4.53,1.13,1.56,3.54,2.94,6.32,1.28,1.83-1.09,3.49-2.38,5.04-3.82,4.28-3.99,8.12-8.37,11.75-12.95,2.91-3.68,5.81-7.36,8.65-11.09,3.23-4.24,6.38-8.54,9.58-12.8,2.59-3.47,5.19-6.94,7.81-10.39.73-.96,2.34-2.87,3.07-3.83.48-.63.86-1.29,1.09-2.06.07-.25.16-.51.29-.74.34-.64.95-.87,1.62-.6,1.46.59,2.57,1.61,3.46,2.86.41.58.72,1.23,1.04,1.87.21.41.22.89.05,1.31-1.2,2.91-2.33,5.85-3.6,8.72-2.67,6.03-5.42,12.03-8.12,18.05-1.81,4.04-3.61,8.09-5.34,12.17-1.14,2.7-2.15,5.45-3.22,8.18-.31.79-.65,1.56-.98,2.34.02.03.04.06.06.09Z"></path>
  <g>
    <path class="st1" d="M327.17,163.71c.14-.09.28-.18.41-.29,3.44-2.81,6.91-5.57,10.3-8.43,2.02-1.71,3.95-3.53,5.87-5.36.88-.84,1.68-1.78,2.41-2.76.42-.56.7-1.25.94-1.92.16-.45.37-.59.82-.53,1.19.17,2.15.78,2.96,1.61,1.26,1.29,2.15,2.79,2.04,4.68-.08,1.31-.7,2.43-1.46,3.46-1.23,1.67-2.85,2.9-4.55,4.04-4.01,2.68-8.37,4.66-12.79,6.52-.46.19-.92.38-1.42.59.07.16.12.28.18.4,1.83,3.28,3.68,6.56,5.49,9.85,2.67,4.86,5.38,9.71,8.44,14.33,2.49,3.76,5.17,7.37,8.58,10.38.82.72,1.71,1.37,2.6,2,1.26.88,2.68,1.33,4.21,1.46.68.06.84.32.76,1.01-.15,1.15-.69,2.12-1.43,2.96-1.8,2.03-4.01,3.24-6.78,3.22-2.53-.02-4.75-.89-6.65-2.57-2.4-2.13-4.23-4.7-5.78-7.49-2-3.59-3.68-7.33-5.06-11.2-1.71-4.79-3.38-9.59-5.11-14.38-.57-1.57-1.23-3.12-1.86-4.66-.44-1.07-1.12-1.98-1.94-2.8-.29-.29-.57-.38-.96-.17-.92.5-1.87.96-2.78,1.47-.22.12-.44.33-.54.56-1.76,3.89-3.53,7.78-5.23,11.71-.95,2.2-1.77,4.45-2.28,6.8-.17.8-.3,1.59.02,2.39.19.48,0,.89-.39,1.21-1.18,1.02-2.54,1.06-3.94.63-2.29-.71-3.27-2.51-3.67-4.69-.13-.72,0-1.49,0-2.24,0-.11,0-.23,0-.34l-.14-.1c-.13.16-.25.33-.38.49-1.61,1.89-3.31,3.69-5.33,5.15-1.21.87-2.5,1.52-4.01,1.74-2.23.32-4.24-.62-5.35-2.58-.94-1.68-1.27-3.48-1.25-5.38,0-.43,0-.87,0-1.3-.04-.01-.08-.03-.12-.04-.07.08-.15.15-.21.24-1.39,2.05-2.77,4.11-4.59,5.83-1.84,1.73-3.96,2.91-6.49,3.25-1.67.22-3.27-.13-4.82-.73-1.91-.74-3.67-1.72-4.86-3.47-1.21-1.78-1.88-3.77-2.11-5.91-.06-.58-.13-1.16-.2-1.82-1.01,1.13-1.93,2.17-2.86,3.2-2.12,2.35-4.49,4.42-7.2,6.07-2.21,1.34-4.57,2.3-7.15,2.57-3.31.34-6.27-.6-8.82-2.72-1.48-1.23-2.27-2.93-2.84-4.73-.44-1.37-.57-2.78-.67-4.21,0-.12-.02-.24-.04-.47-.19.22-.33.36-.45.51-2.43,2.95-5.03,5.73-8.17,7.95-2.45,1.73-5.08,3.06-8.06,3.55-4.18.68-7.81-.47-10.63-3.68-1.27-1.44-1.87-3.25-2.19-5.13-.15-.91-.15-1.84-.23-2.76-.01-.13-.09-.25-.13-.37-.11.07-.25.11-.34.21-.9,1.02-1.77,2.08-2.7,3.07-2.32,2.49-4.86,4.72-7.92,6.29-2.13,1.09-4.28,2.16-6.65,2.66-1.75.37-3.46.24-5.11-.45-1.37-.57-2.4-1.58-3.1-2.84-1.69-3.01-1.85-6.18-.43-9.3.95-2.09,2.72-3.46,4.95-4.1.97-.28,1.93-.1,2.76.53.81.61,1.16,1.4.93,2.39-.23,1.02-.89,1.69-1.9,1.95-1.16.3-2.18-.15-2.82-1.17-.06-.09-.12-.18-.21-.32-.12.11-.24.17-.31.28-1.32,2.11-1.86,4.38-1.16,6.81.51,1.76,1.74,2.82,3.54,3.19.66.13,1.27-.07,1.87-.32,1.53-.63,2.69-1.72,3.66-3.01,1.74-2.33,2.71-4.95,2.96-7.85.37-4.14-.28-8.16-1.59-12.07-.66-1.97-1.52-3.87-2.3-5.8-.07-.17-.18-.32-.32-.56-.14.19-.26.3-.33.44-1.04,1.95-2.06,3.91-3.13,5.84-2.12,3.84-4.05,7.79-6.65,11.34-2.9,3.96-6.05,7.7-9.99,10.68-2.47,1.87-5.17,3.32-8.24,3.95-3.92.8-7.41-.13-10.4-2.76-1.5-1.32-2.22-3.12-2.72-5.01-.29-1.11-.48-2.23-.41-3.39,0-.13-.04-.26-.08-.5-.23.25-.39.41-.54.59-2.66,3.19-5.52,6.17-9.07,8.41-2.33,1.47-4.83,2.5-7.58,2.89-3.65.52-9.1-1.33-10.95-5.38-.78-1.69-1.36-3.43-1.33-5.33,0-.06-.02-.12-.04-.28-.17.14-.31.23-.39.35-1.51,2.18-3.16,4.26-5.01,6.16-1.62,1.65-3.34,3.19-5.5,4.11-1.17.5-2.39.64-3.64.38-1.19-.24-2.06-.98-2.75-1.93-1.18-1.63-1.74-3.49-1.85-5.48-.22-3.98.84-7.71,2.21-11.39,1.48-3.97,3.36-7.76,5.24-11.54.65-1.31,1.2-2.69,1.7-4.07.22-.6.23-1.29.26-1.94.03-.6-.31-1.01-.88-1.18-.63-.18-1.24-.14-1.83.15-1.33.64-2.49,1.51-3.53,2.54-4.24,4.23-7.99,8.86-10.95,14.07-1.5,2.64-2.62,5.51-3.82,8.32-.97,2.27-1.8,4.6-2.65,6.92-.23.64-.37,1.33-.44,2.01-.05.51.03,1.06.16,1.57.17.62-.01,1.07-.49,1.45-1.09.87-2.33.99-3.6.63-2.24-.63-3.75-2.52-3.97-4.86,0-.08-.03-.15-.07-.37-.2.19-.34.3-.45.44-2.07,2.7-4.06,5.46-6.23,8.08-3.99,4.81-8.46,9.13-13.65,12.67-3.49,2.38-7.23,4.26-11.27,5.51-3.29,1.14-5.52,1.24-7.92,1.14-2.33-.1-6.24-1.26-8.27-2.37-2.92-1.59-5.37-3.68-7.15-6.51-1.8-2.86-2.88-5.98-3.47-9.31-.36-2.02-.19-4.03-.26-6.05-.14-3.91.6-7.69,1.68-11.42,1.32-4.56,2.83-9.05,4.62-13.44,2.06-5.05,4.55-9.87,7.59-14.4,2.38-3.54,5.03-6.88,7.96-10,2.23-2.37,4.58-4.61,7.07-6.69,3.61-3.02,7.76-4.95,12.4-5.71,2.66-.44,5.35-.43,7.94.5,4.18,1.5,6.84,4.49,8.29,8.64,1.1,3.12,1.55,6.34,1.3,9.62-.37,4.82-1.69,9.33-4.88,13.12-.43.51-.91,1-1.36,1.5-1.13,1.23-2.5,1.63-4.13,1.29-1.95-.4-3.69-1.18-5.06-2.67-.2-.22-.38-.46-.54-.71-.55-.88-.48-1.55.3-2.25,1.31-1.18,2.58-2.38,3.58-3.85,2.32-3.42,3.89-7.14,4.48-11.24.27-1.86.33-3.72-.13-5.55-.17-.68-.5-1.36-.91-1.94-.84-1.2-2.1-1.11-3.33-.82-1.62.38-2.96,1.3-4.31,2.24-4.12,2.88-7.44,6.57-10.58,10.44-4.94,6.09-8.6,12.93-11.66,20.11-1.91,4.5-3.57,9.09-4.85,13.81-1.09,4.01-1.61,8.08-1.37,12.22.21,3.69,1,7.23,3.09,10.36,1.77,2.65,4.16,4.4,7.35,4.93,2.26.37,4.46.01,6.62-.67,2.94-.93,5.51-2.55,7.93-4.41,4.17-3.22,7.74-7.04,11.1-11.08,3.83-4.62,7.28-9.51,10.38-14.64.52-.86.77-1.87,1.15-2.82,1.89-4.69,3.72-9.4,5.69-14.06,3.07-7.29,6.25-14.53,9.35-21.8,1.44-3.37,2.85-6.75,3.87-10.28.18-.61.33-1.25.4-1.88.04-.38-.02-.82-.19-1.16-.21-.44-.12-.7.22-.97.63-.51,1.39-.82,2.16-.84,1.15-.03,2.31-.15,3.45.17,2.26.64,3.34,2.26,3.76,4.42.3,1.54-.12,3.02-.5,4.49-.98,3.73-2.35,7.33-3.88,10.87-1.84,4.25-3.79,8.46-5.68,12.69-.12.27-.22.54-.34.81.03.03.07.06.1.09.12-.1.25-.19.36-.3,1.56-1.57,3.11-3.14,4.88-4.48,1.46-1.1,2.99-2.06,4.8-2.49,2.59-.61,4.75.18,6.04,2.2.59.92.96,1.93,1.18,3,.38,1.82.24,3.64.07,5.47-.39,4.26-2.06,8.11-3.79,11.93-1.41,3.11-2.94,6.16-4.39,9.25-.55,1.18-.96,2.4-1.13,3.71-.2,1.58,1.12,2.26,2.25,1.83.76-.29,1.47-.83,2.08-1.4,1.83-1.71,3.32-3.72,4.78-5.74,1.09-1.51,2.1-3.08,3.18-4.6.51-.72.73-1.54.96-2.37,1.65-6.11,4.26-11.75,8.5-16.52,2.88-3.24,6.31-5.67,10.61-6.67,1.97-.46,3.96-.69,5.96-.25,2.41.52,3.88,2.33,3.97,4.82.09,2.59-.73,4.95-2,7.15-3.81,6.57-9.45,10.84-16.71,13.01-.43.13-.54.36-.63.75-.54,2.25-.89,4.51-.82,6.83.04,1.12.23,2.21.66,3.25.66,1.62,1.66,2.26,3.65,2.09,2.06-.17,3.79-1.13,5.45-2.25,2.46-1.66,4.61-3.68,6.51-5.95,1.36-1.64,2.64-3.34,3.93-5.04.24-.31.37-.72.47-1.11,1.65-6.09,4.24-11.72,8.43-16.51,2.25-2.57,4.89-4.63,8.07-5.94,2.44-1.01,4.98-1.47,7.62-1.26,3.06.23,4.94,2.29,4.95,5.36.01,2.38-.8,4.51-1.89,6.56-2.04,3.83-5,6.84-8.53,9.31-2.46,1.72-5.13,3-8.02,3.83-.56.16-.83.43-.96,1.02-.48,2.23-.87,4.46-.76,6.75.06,1.11.17,2.22.66,3.24.77,1.6,1.92,2.19,3.69,2,1.8-.19,3.36-.98,4.85-1.9,2.92-1.8,5.27-4.25,7.49-6.81,2.78-3.21,5.21-6.67,7.17-10.45,1.07-2.06,2.02-4.17,3.06-6.24.64-1.26,1.36-2.47,2.02-3.71.4-.76.77-1.54,1.11-2.33.07-.16.03-.44-.07-.6-1.29-2.08-1.89-4.33-1.64-6.77.28-2.76,2.16-5.48,4.88-6.01,1.12-.22,2.24-.22,3.36.06,1.27.32,2.21,1.45,2.35,2.76.18,1.74-.41,3.3-1.15,4.82-.37.76-.8,1.49-1.24,2.21-.18.29-.16.46.07.73,3.61,4.12,6.47,8.69,8.16,13.94.87,2.7,1.15,5.48.92,8.3-.05.61-.2,1.22-.33,1.96.22-.16.37-.23.45-.33,1.12-1.4,2.24-2.79,3.33-4.21.22-.29.36-.66.46-1.01,1.46-4.96,3.61-9.58,6.77-13.69,2.32-3.03,5.09-5.54,8.58-7.17,2.65-1.24,5.45-1.83,8.39-1.62,2.56.18,4.38,1.67,4.88,4.07.33,1.57.07,3.12-.41,4.63-.94,2.98-2.56,5.57-4.63,7.88-3.71,4.13-8.2,7.05-13.56,8.57-.34.1-.49.26-.57.58-.65,2.58-1.08,5.19-.82,7.85.07.76.24,1.52.49,2.24.58,1.72,1.97,2.49,3.85,2.25,1.75-.22,3.31-.92,4.77-1.86,2.23-1.43,4.26-3.12,5.98-5.12,1.78-2.07,3.47-4.21,5.14-6.36.42-.54.68-1.23.87-1.9,1.73-5.89,4.31-11.32,8.37-15.98,2.12-2.43,4.58-4.42,7.59-5.65,2.31-.94,4.71-1.44,7.21-1.2,2.23.21,4.22.95,5.45,3.02.83,1.4.94,2.91.52,4.45-.29,1.06-1.29,1.75-2.41,1.74-1.15,0-2.15-.69-2.45-1.71-.29-.96,0-1.79.68-2.49.6-.61.54-.92-.24-1.3-.52-.25-1.03-.21-1.55-.02-1.24.44-2.16,1.32-3.07,2.21-1.52,1.48-2.68,3.23-3.78,5.02-2.1,3.42-3.96,6.98-5.44,10.72-1.31,3.31-2.07,6.76-2.11,10.34-.02,1.38.09,2.76.65,4.05.69,1.58,1.95,2.25,3.67,2.04,1.89-.22,3.53-1.04,5.09-2.06,2.45-1.59,4.57-3.58,6.47-5.79,1.46-1.7,2.8-3.5,4.17-5.27.24-.31.41-.71.51-1.09,1.36-5.34,3.6-10.28,6.82-14.75,2.23-3.1,4.92-5.74,8.4-7.45,2.59-1.27,5.34-1.9,8.23-1.65,1.91.17,3.69.75,4.96,2.34,1.25,1.57,1.53,3.34.96,5.22-.3.99-1.06,1.52-2.09,1.62-1.1.1-1.98-.3-2.54-1.26-.53-.91-.36-1.81.24-2.64.14-.19.31-.36.47-.53.36-.38.34-.45-.03-.79-.69-.61-1.48-.58-2.19-.19-.76.41-1.49.92-2.14,1.5-2.19,1.93-3.77,4.35-5.21,6.86-1.91,3.31-3.69,6.7-5.02,10.29-1.26,3.41-1.94,6.94-1.68,10.59.1,1.38.29,2.76,1.24,3.87,1.05,1.24,2.58,1.72,4.18.63,1-.68,1.81-1.54,2.55-2.48,1.98-2.53,3.56-5.31,5.04-8.15,1.65-3.17,3.34-6.32,4.83-9.56,1.74-3.81,3.61-7.58,4.92-11.58.24-.74.43-1.51.51-2.28.05-.43-.09-.92-.26-1.33-.24-.56-.26-.74.26-1.09.7-.48,1.48-.73,2.31-.86,1.24-.19,2.43-.01,3.6.41,2.01.72,2.93,2.29,3.39,4.24.4,1.72.12,3.4-.33,5.06-.9,3.33-2.27,6.47-3.86,9.51-2.1,4.05-4.24,8.08-6.33,12.13-.68,1.32-1.27,2.69-1.55,4.17-.04.23-.06.47-.07.7,0,1.13.79,1.77,1.86,1.37.66-.24,1.3-.64,1.82-1.12,2.39-2.18,4.26-4.81,6.16-7.4.11-.15.21-.31.33-.46.95-1.26,1.65-2.63,2.22-4.11,1.95-5,3.97-9.98,6.05-14.92,3.52-8.36,7.13-16.67,10.63-25.03.88-2.1,1.52-4.3,2.24-6.47.16-.47.22-.98.24-1.48.01-.33-.08-.69-.23-.98-.18-.35-.13-.57.15-.82.65-.57,1.44-.86,2.27-.92,1.21-.08,2.44-.15,3.63.23,1.99.63,3.46,2.53,3.56,4.63.08,1.68-.29,3.3-.74,4.9-1.33,4.71-3.16,9.24-5.15,13.7-1.97,4.42-4.03,8.8-6.05,13.19-.34.74-.7,1.47-1.05,2.2-.06.13-.11.28-.17.41.04.02.07.05.11.07ZM221.4,172.06s.07.06.11.09c.26-.09.53-.18.79-.28,3.88-1.44,7.1-3.81,9.74-6.99,1.66-2.01,3.05-4.17,3.79-6.7.32-1.1.52-2.2.14-3.32-.26-.78-.99-1.22-1.77-.99-.53.16-1.06.38-1.54.67-1.74,1.06-3.01,2.59-4.19,4.21-2.83,3.88-4.91,8.18-6.84,12.56-.1.23-.16.49-.24.74ZM163.2,172.23c.58-.23,1.02-.4,1.47-.58,5.62-2.34,9.71-6.29,12.33-11.76.72-1.5,1.14-3.09.82-4.78-.18-.92-.94-1.49-1.82-1.23-.66.2-1.3.53-1.88.91-1.34.88-2.39,2.07-3.36,3.33-3.13,4.09-5.35,8.68-7.39,13.38-.08.19-.09.4-.17.73ZM133.57,172.18c.27-.08.42-.11.56-.16,3.75-1.38,6.98-3.51,9.61-6.54,1.86-2.14,3.43-4.44,4.27-7.18.29-.95.55-1.92.34-2.91-.25-1.19-.93-1.86-2.27-1.42-.35.11-.71.27-1.02.47-2.05,1.35-3.6,3.19-4.98,5.19-2.58,3.73-4.53,7.79-6.33,11.94-.07.15-.09.32-.17.6Z"></path>
    <path class="st1" d="M371.25,150.17c.82.12,1.66.16,2.45.36,2.14.56,3.46,2.14,3.7,4.35.24,2.21-.39,4.25-1.3,6.22-1.98,4.29-5.1,7.59-8.91,10.3-2.54,1.81-5.29,3.16-8.3,3.98-.48.13-.69.37-.81.88-.48,2.03-.82,4.08-.81,6.18,0,1.42.19,2.81.81,4.11.59,1.26,1.57,1.85,2.95,1.85,1.86,0,3.47-.74,5.02-1.65,1.9-1.11,3.55-2.51,5.11-4.06,4.07-4.04,7.43-8.61,10.11-13.67.53-1.01.95-2.08,1.42-3.12.43-.96,1.44-1.23,2.25-.6.47.37.64,1.12.33,1.81-.41.9-.84,1.78-1.3,2.66-2.43,4.62-5.31,8.95-8.78,12.86-2.62,2.95-5.47,5.62-8.94,7.55-2.38,1.33-4.92,2.2-7.67,2.29-1.68.05-3.28-.4-4.83-1.04-3.55-1.46-5.33-4.26-6.03-7.88-.5-2.61-.34-5.21.22-7.79,1.16-5.3,3.21-10.24,6.18-14.78,2.06-3.14,4.58-5.84,7.77-7.88,2.86-1.82,5.97-2.78,9.36-2.94ZM359.43,172.1s.07.09.11.13c1.14-.51,2.3-.97,3.41-1.53,2.63-1.32,4.83-3.18,6.76-5.39,1.79-2.05,3.26-4.29,4.1-6.9.35-1.09.5-2.2.24-3.33-.22-.98-.95-1.46-1.89-1.16-.69.22-1.35.57-1.95.98-1.39.94-2.46,2.22-3.46,3.56-3.03,4.09-5.27,8.62-7.23,13.3-.05.11-.06.23-.09.34Z"></path>
  </g>
  <path class="st0" d="M141.64,246.83c.08-.11.24-.23.24-.34.04-2,.46-3.94,1.01-5.85,1.41-4.88,3.46-9.47,6.41-13.63,1.95-2.75,4.24-5.16,7.15-6.92,2.34-1.42,4.88-2.23,7.62-2.42,1.67-.12,3.29.06,4.81.78,2.65,1.24,3.65,3.74,3.11,6.44-.26,1.29-1.5,2.12-2.76,1.95-1.31-.18-2.26-1.21-2.22-2.44.02-.69.36-1.25.81-1.75.18-.2.41-.47.4-.71,0-.33-.67-.7-1.05-.74-.82-.08-1.55.18-2.21.63-1.82,1.24-3.23,2.86-4.46,4.66-2.77,4.06-5.01,8.4-6.83,12.95-1.24,3.09-2,6.3-2,9.64,0,1.5.09,3.01.68,4.43.33.81.87,1.43,1.63,1.88.94.56,1.87.49,2.81,0,.93-.49,1.68-1.2,2.36-1.99,2.05-2.42,3.64-5.14,5.11-7.93,1.75-3.31,3.51-6.62,5.07-10.02,1.83-3.96,3.75-7.9,5.13-12.05.24-.72.38-1.48.51-2.24.09-.51.02-1.03-.31-1.48-.24-.33-.16-.62.15-.85.69-.52,1.49-.79,2.34-.92,1.33-.21,2.61-.03,3.87.46,1.61.63,2.49,1.89,2.95,3.49.58,2.03.31,4.02-.23,6.02-.84,3.12-2.14,6.05-3.6,8.91-1.44,2.82-2.95,5.6-4.44,8.39-1.25,2.34-2.43,4.71-3.32,7.21-.18.51-.31,1.06-.35,1.6-.1,1.11.73,1.77,1.81,1.48.84-.22,1.52-.74,2.13-1.33,2.28-2.2,4.15-4.74,5.99-7.3,2.48-3.46,4.61-7.13,6.62-10.88.21-.4.37-.83.58-1.23,1.29-2.52,2.59-5.04,3.87-7.56.44-.86.86-1.74,1.3-2.61.2-.39.14-.7-.08-1.09-1.86-3.32-2.37-6.69-.21-10.08,1.06-1.66,2.64-2.49,4.61-2.57.9-.04,1.79-.03,2.63.34,1.18.52,1.8,1.44,1.9,2.74.14,1.74-.41,3.31-1.21,4.81-.36.68-.74,1.34-1.13,2.01-.19.33-.15.57.11.88,3.5,4.06,6.32,8.53,7.99,13.66.89,2.74,1.17,5.54.99,8.39-.03.47-.16.93-.23,1.39-.03.18-.02.36-.04.68.23-.19.38-.27.48-.39,2.74-3.29,5.38-6.67,7.4-10.47.65-1.22,1.07-2.57,1.6-3.86,1.7-4.11,3.39-8.22,5.11-12.33,1.31-3.15,2.65-6.29,3.98-9.44.04-.1.08-.2.12-.31.14-.33.04-.45-.32-.44-1.24.02-2.48.01-3.72.02-1.47,0-2.95-.02-4.42.02-2.45.07-4.88.37-7.13,1.42-1.42.66-2.65,1.58-3.03,3.25-.1.43-.13.87-.25,1.29-.24.9-1,1.16-1.74.6-.74-.56-1.09-1.39-1.24-2.26-.37-2.16-.24-4.28.83-6.26.81-1.48,2.09-2.44,3.57-3.16,1.82-.89,3.75-1.47,5.77-1.5,2.17-.04,4.35.07,6.52.16,1.41.06,2.81.18,4.22.3,1.01.09,2.02.2,3.03.33.28.04.45,0,.54-.28.87-2.4,1.78-4.78,2.3-7.29.13-.61.3-1.22-.14-1.8-.07-.09.02-.4.13-.52.5-.54,1.16-.86,1.86-.92,1.27-.12,2.57-.22,3.83.11,2.2.59,3.28,2.18,3.72,4.29.32,1.53-.1,3.02-.42,4.5-.19.88-.43,1.76-.67,2.72.87.06,1.69.18,2.52.16,2.54-.06,5.08-.12,7.61-.28,2.48-.16,4.95-.49,7.35-1.21.59-.18,1.17-.44,1.73-.72.84-.42,1.41-1.04,1.51-2.05.08-.8.58-1.02,1.39-.74.98.34,1.99,1.79,1.85,2.82-.06.43-.31.89-.6,1.23-.84.97-1.97,1.53-3.13,2.03-2.57,1.1-5.28,1.78-8.02,2.25-2.51.43-5.03.82-7.56,1.11-1.93.22-3.87.25-5.81.33-.42.02-.64.15-.81.55-1.08,2.59-2.14,5.18-3.29,7.74-1.38,3.07-2.84,6.11-4.27,9.16-1.55,3.29-3.12,6.57-4.66,9.86-2.06,4.4-4.2,8.76-5.82,13.34-.55,1.56-1.05,3.15-1.2,4.81-.03.35.07.75.21,1.08.21.49.65.64,1.17.52.76-.17,1.37-.59,1.93-1.11,1.65-1.56,3.08-3.3,4.4-5.14,1.46-2.02,2.86-4.08,4.22-6.17.37-.56.59-1.24.77-1.9,1.68-6,4.22-11.56,8.37-16.29,2.09-2.38,4.52-4.34,7.42-5.66,1.87-.85,3.83-1.35,5.88-1.52,1.23-.1,2.44-.05,3.63.28,1.95.54,3.07,1.89,3.43,3.84.39,2.11-.13,4.11-.93,6.04-1.36,3.29-3.5,6.04-6.09,8.44-2.74,2.54-5.85,4.52-9.37,5.81-.69.25-1.4.46-2.1.67-.34.1-.52.3-.6.64-.51,2.07-.89,4.17-.89,6.31,0,1.15.18,2.31.46,3.43.47,1.88,2.22,2.86,4.18,2.57,2.43-.36,4.42-1.6,6.31-3.06,3.73-2.87,6.69-6.46,9.38-10.28,1.94-2.76,3.51-5.73,4.97-8.78,1.43-2.99,2.53-6.1,3.84-9.13.24-.54.4-1.12.58-1.69.12-.35.04-.57-.33-.79-2.26-1.37-3.83-3.31-4.19-5.95-.32-2.31.22-4.5,2.1-6.09,1.45-1.22,4.29-1.58,5.87.2.86.97,1.4,2.07,1.42,3.39.02,2.01-.07,4.01-.47,5.98-.07.33.03.55.37.64.21.05.43.15.64.15,1.26,0,2.56.12,3.79-.12,1.01-.19,1.97-.77,2.9-1.27.9-.48,1.74-1.07,2.81-1.1,2.15-.05,4.87.67,5.89,3.32.71,1.84.73,3.69.3,5.58-.56,2.5-1.42,4.91-2.54,7.21-1.8,3.67-3.72,7.28-5.61,10.91-1.27,2.43-2.59,4.84-3.43,7.47-.16.51-.28,1.03-.42,1.54-.3,1.13.61,1.69,1.4,1.7.68,0,1.28-.27,1.74-.72,1.16-1.14,2.36-2.26,3.39-3.52,3.48-4.24,6.45-8.83,9.08-13.64,1.03-1.88,1.86-3.87,2.8-5.79.5-1.01,1.04-2,1.56-3,.77-1.47,1.53-2.95,2.3-4.42.13-.25.17-.47,0-.74-1.1-1.69-1.66-3.55-1.71-5.58-.05-1.78.42-3.38,1.42-4.82,1.08-1.56,2.58-2.4,4.47-2.46.76-.02,1.54.02,2.28.19,1.77.41,2.52,2.1,2.38,3.72-.17,1.98-1.09,3.67-2.04,5.35-.73,1.28-.65.97.14,1.91,3,3.58,5.5,7.47,7.13,11.87.63,1.7,1.47,3.98,1.53,5.83.06,1.95.1,2.15-.18,4.32-.18,1.37-.47,2.68-.9,3.97-.85,2.57-2.15,4.87-4.13,6.75-1.47,1.4-3.19,2.42-5,3.32-2.52,1.26-5.12,2.2-8.02,1.82-1.26-.17-2.41-.55-3.37-1.41-2.63-2.34-3.14-5.38-2.79-8.67.27-2.55,1.68-4.4,3.79-5.77,1.04-.67,2.14-1.09,3.42-.85,1.18.23,2.15,1.23,2.17,2.28.03,1.15-.7,2.16-1.81,2.53-1,.33-2.11-.05-2.78-.96-.14-.2-.29-.39-.46-.62-.66.99-1.1,2-1.39,3.08-.42,1.55-.44,3.08.12,4.61.79,2.16,3.53,3.56,5.82,2.22,1.15-.67,2.11-1.53,2.93-2.54,2.15-2.65,3.11-5.76,3.27-9.13.14-2.85-.23-5.65-.9-8.42-.71-2.95-1.79-5.77-3.1-8.5-.09-.18-.19-.36-.34-.65-.2.38-.34.65-.49.92-1.33,2.47-2.68,4.93-4,7.4-.87,1.63-1.62,3.33-2.55,4.93-1.35,2.33-2.77,4.63-4.25,6.88-1.96,3-4.09,5.86-6.66,8.38-1.55,1.52-3.17,2.96-5.23,3.76-1.32.51-2.71.62-4.05.15-1.96-.68-2.99-2.25-3.53-4.16-.49-1.73-.54-3.51-.41-5.31.18-2.34.65-4.62,1.37-6.84,1.4-4.33,3.17-8.51,5-12.67,1.01-2.29,1.95-4.61,2.9-6.93.07-.16.04-.35.06-.53-.16.02-.33.01-.48.06-1.47.49-3,.68-4.53.65-.99-.02-1.98-.27-2.97-.42-.27-.04-.44.01-.55.29-.27.72-.55,1.43-.85,2.14-1.22,2.85-2.41,5.71-3.69,8.54-.5,1.11-1.23,2.11-1.8,3.18-3.07,5.79-6.84,11.06-11.59,15.6-2.8,2.67-5.9,4.85-9.65,5.99-2.43.74-4.86.89-7.29.09-1.89-.62-3.62-1.5-4.92-3.07-1.35-1.62-2.04-3.54-2.39-5.59-.11-.62-.2-1.24-.32-1.99-.19.21-.3.3-.37.41-2.06,3.07-4.36,5.94-7.24,8.3-1.49,1.22-3.05,2.31-5.06,2.5-1.86.18-3.43-.33-4.64-1.82-1.29-1.59-1.62-3.5-1.75-5.45-.13-1.89.1-3.75.59-5.58.05-.18.03-.38.05-.69-.2.16-.3.22-.38.31-.67.79-1.32,1.59-1.99,2.38-3.25,3.87-6.92,7.19-11.62,9.27-2.51,1.11-5.01,2.05-7.82,1.7-1.26-.16-2.41-.55-3.37-1.4-2.62-2.31-3.15-5.33-2.82-8.61.26-2.52,1.62-4.36,3.66-5.75,1.06-.72,2.2-1.19,3.53-.93,1.24.24,2.18,1.24,2.19,2.36.01,1.12-.74,2.09-1.89,2.47-.95.31-2.12-.14-2.75-1.05-.12-.17-.25-.34-.41-.55-.18.3-.32.54-.46.78-1.27,2.21-1.58,4.52-.78,6.96.65,1.95,3.35,3.48,5.55,2.29,1.27-.69,2.33-1.59,3.21-2.7,2.08-2.62,3.03-5.67,3.23-8.96.14-2.24-.1-4.47-.5-6.68-.67-3.7-1.99-7.17-3.56-10.56-.06-.13-.17-.23-.3-.4-.4.74-.75,1.4-1.11,2.06-1.26,2.29-2.54,4.57-3.78,6.87-.53.98-.99,1.99-1.51,2.98-1.86,3.55-4.01,6.91-6.32,10.18-2.12,3.01-4.42,5.86-7.31,8.18-1.48,1.19-3.04,2.21-5.03,2.33-2.02.13-3.7-.46-4.78-2.24-.45-.74-.79-1.57-1.07-2.39-.43-1.28-.44-2.62-.4-3.95,0-.26,0-.53,0-.8-.07-.03-.15-.06-.22-.09-.05.1-.09.2-.15.29-.41.63-.8,1.28-1.23,1.89-1.3,1.83-2.64,3.62-4.46,4.99-1.81,1.36-3.78,2.26-6.08,2.34-1.42.04-2.76-.28-4.08-.77-3.07-1.14-5.21-3.15-6.23-6.32-.42-1.31-.6-2.65-.7-4.01-.01-.16-.14-.31-.22-.46,0-.47,0-.94,0-1.41ZM243.97,239.61c.49-.19.86-.32,1.21-.47,5.78-2.31,9.97-6.33,12.64-11.93.67-1.4,1.1-2.89.86-4.5-.14-.99-.68-1.6-1.62-1.5-.58.06-1.19.29-1.7.59-1.38.84-2.5,1.99-3.5,3.24-1.67,2.09-3.12,4.32-4.28,6.73-1.15,2.38-2.31,4.76-3.45,7.15-.08.17-.09.37-.16.68Z"></path>
</svg>