<svg version="1.1" id="svg1" width="3840" height="960" viewBox="0 0 3840 960" xmlns:xlink="http://www.w3.org/1999/xlink" xmlns="http://www.w3.org/2000/svg">
  <defs id="defs1">
    
    <clipPath clipPathUnits="userSpaceOnUse" id="clipPath2">
      <path d="M 0,720 H 2880 V 0 H 0 Z" transform="translate(-583.73081,-344.12461)" id="path2"></path>
    </clipPath>
    <clipPath clipPathUnits="userSpaceOnUse" id="clipPath4">
      <path d="M 0,720 H 2880 V 0 H 0 Z" transform="translate(-1577.9247,-344.44591)" id="path4"></path>
    </clipPath>
    <clipPath clipPathUnits="userSpaceOnUse" id="clipPath6">
      <path d="M 0,720 H 2880 V 0 H 0 Z" transform="translate(-1888.3456,-290.65471)" id="path6"></path>
    </clipPath>
    <clipPath clipPathUnits="userSpaceOnUse" id="clipPath8">
      <path d="M 0,720 H 2880 V 0 H 0 Z" transform="translate(-2462.7439,-354.37501)" id="path8"></path>
    </clipPath>
  </defs>
  
    
  
  <g id="layer-MC0">
    <path id="path1" d="m 0,0 c 1.204,0.341 1.857,0.481 2.477,0.709 16.497,6.07 30.709,15.442 42.282,28.801 8.17,9.431 15.082,19.549 18.78,31.592 1.278,4.16 2.416,8.43 1.489,12.803 -1.112,5.242 -4.096,8.168 -10.011,6.243 -1.554,-0.507 -3.11,-1.187 -4.471,-2.083 C 41.509,72.115 34.681,64.01 28.604,55.209 17.262,38.782 8.649,20.905 0.762,2.646 0.476,1.982 0.354,1.248 0,0 m 130.44,-0.225 c 2.542,1.008 4.511,1.755 6.454,2.564 24.718,10.296 42.724,27.684 54.268,51.747 3.163,6.595 5.039,13.581 3.603,21.048 -0.778,4.043 -4.119,6.569 -8.012,5.416 -2.909,-0.861 -5.735,-2.329 -8.285,-4.002 C 172.574,72.682 167.951,67.439 163.699,61.879 149.928,43.872 140.139,23.659 131.173,2.997 130.818,2.18 130.762,1.233 130.44,-0.225 m 256.167,0.741 c 0.16,-0.135 0.32,-0.269 0.48,-0.404 1.155,0.407 2.317,0.795 3.465,1.222 17.083,6.356 31.257,16.762 42.864,30.757 7.326,8.833 13.443,18.341 16.695,29.478 1.408,4.822 2.293,9.667 0.632,14.615 -1.157,3.45 -4.337,5.357 -7.803,4.338 -2.346,-0.69 -4.676,-1.687 -6.764,-2.957 C 428.536,72.916 422.936,66.154 417.75,59.048 405.274,41.954 396.12,23.038 387.649,3.759 387.195,2.725 386.95,1.599 386.607,0.516 m 465.609,36.737 c 0.609,0.418 1.252,0.794 1.823,1.259 15.135,12.348 30.409,24.531 45.338,37.125 8.909,7.515 17.397,15.547 25.828,23.605 3.875,3.704 7.386,7.856 10.622,12.137 1.861,2.461 3.09,5.5 4.128,8.447 0.705,2.002 1.638,2.611 3.604,2.339 5.252,-0.728 9.465,-3.452 13.027,-7.104 5.554,-5.694 9.451,-12.281 8.959,-20.606 C 965.204,88.672 962.451,83.767 959.11,79.227 953.708,71.886 946.552,66.47 939.06,61.465 921.425,49.684 902.235,40.948 882.771,32.751 c -2.019,-0.85 -4.047,-1.677 -6.26,-2.593 0.319,-0.698 0.528,-1.254 0.814,-1.767 8.057,-14.454 16.192,-28.867 24.17,-43.365 11.775,-21.398 23.68,-42.722 37.17,-63.099 10.958,-16.552 22.759,-32.463 37.751,-45.682 3.611,-3.184 7.523,-6.052 11.466,-8.823 5.535,-3.889 11.806,-5.84 18.537,-6.41 3.004,-0.254 3.718,-1.424 3.34,-4.426 -0.64,-5.075 -3.038,-9.322 -6.312,-13.023 -7.904,-8.933 -17.655,-14.278 -29.845,-14.172 -11.126,0.097 -20.925,3.908 -29.253,11.305 -10.552,9.373 -18.622,20.705 -25.444,32.95 -8.806,15.805 -16.198,32.266 -22.268,49.311 -7.509,21.087 -14.895,42.218 -22.479,63.277 -2.496,6.93 -5.408,13.712 -8.199,20.533 -1.934,4.727 -4.933,8.736 -8.559,12.312 -1.287,1.269 -2.526,1.663 -4.228,0.74 -4.058,-2.201 -8.213,-4.222 -12.254,-6.453 -0.966,-0.534 -1.95,-1.462 -2.396,-2.449 -7.744,-17.144 -15.548,-34.264 -23.027,-51.525 -4.189,-9.667 -7.799,-19.583 -10.047,-29.931 -0.767,-3.528 -1.319,-6.992 0.09,-10.538 0.833,-2.094 -0.041,-3.91 -1.706,-5.347 -5.204,-4.491 -11.183,-4.687 -17.332,-2.783 -10.074,3.119 -14.397,11.049 -16.169,20.638 -0.587,3.172 -0.003,6.561 0.043,9.85 0.007,0.505 10e-4,1.009 10e-4,1.514 -0.202,0.144 -0.404,0.289 -0.606,0.433 -0.561,-0.723 -1.094,-1.471 -1.689,-2.166 -7.105,-8.305 -14.564,-16.251 -23.471,-22.686 -5.308,-3.834 -10.984,-6.684 -17.633,-7.643 -9.831,-1.418 -18.681,2.724 -23.542,11.371 -4.146,7.376 -5.609,15.332 -5.504,23.676 0.024,1.906 0.003,3.813 0.003,5.719 -0.18,0.065 -0.361,0.129 -0.541,0.194 -0.316,-0.356 -0.678,-0.68 -0.942,-1.071 -6.108,-9.041 -12.203,-18.092 -20.202,-25.642 -8.085,-7.629 -17.433,-12.82 -28.559,-14.295 -7.344,-0.974 -14.401,0.563 -21.239,3.222 -8.424,3.274 -16.152,7.58 -21.39,15.267 -5.343,7.843 -8.279,16.592 -9.29,26.007 -0.274,2.547 -0.554,5.094 -0.873,8.029 -4.456,-4.993 -8.501,-9.567 -12.59,-14.102 -9.343,-10.361 -19.762,-19.457 -31.702,-26.737 -9.708,-5.919 -20.096,-10.12 -31.454,-11.302 -14.57,-1.516 -27.591,2.663 -38.815,11.99 -6.524,5.421 -9.973,12.9 -12.514,20.83 -1.931,6.026 -2.523,12.257 -2.93,18.52 -0.035,0.525 -0.099,1.048 -0.198,2.073 -0.849,-0.954 -1.437,-1.569 -1.975,-2.224 -10.688,-12.996 -22.133,-25.206 -35.95,-34.994 -10.766,-7.628 -22.364,-13.481 -35.469,-15.605 -18.41,-2.985 -34.362,2.078 -46.805,16.199 -5.571,6.321 -8.241,14.305 -9.642,22.561 -0.677,3.986 -0.669,8.085 -1.02,12.129 -0.048,0.552 -0.381,1.079 -0.582,1.618 -0.498,-0.302 -1.107,-0.505 -1.475,-0.921 -3.977,-4.5 -7.792,-9.149 -11.888,-13.536 -10.228,-10.954 -21.393,-20.791 -34.85,-27.67 -9.388,-4.799 -18.843,-9.499 -29.28,-11.691 -7.696,-1.617 -15.251,-1.076 -22.513,1.96 -6.015,2.513 -10.549,6.964 -13.667,12.522 -7.432,13.249 -8.13,27.223 -1.901,40.935 4.179,9.2 11.957,15.242 21.809,18.037 4.28,1.215 8.483,0.451 12.165,-2.32 3.544,-2.667 5.093,-6.173 4.092,-10.512 -1.031,-4.471 -3.921,-7.428 -8.361,-8.573 -5.09,-1.313 -9.588,0.661 -12.407,5.147 -0.252,0.402 -0.519,0.794 -0.934,1.428 -0.525,-0.463 -1.074,-0.765 -1.366,-1.229 -5.829,-9.291 -8.205,-19.272 -5.108,-29.992 2.237,-7.742 7.656,-12.417 15.599,-14.029 2.904,-0.589 5.575,0.323 8.22,1.416 6.728,2.78 11.857,7.557 16.122,13.255 7.661,10.235 11.912,21.805 13.038,34.553 1.609,18.229 -1.224,35.907 -6.992,53.11 -2.906,8.666 -6.71,17.032 -10.134,25.523 -0.299,0.741 -0.79,1.404 -1.393,2.453 -0.632,-0.824 -1.142,-1.331 -1.467,-1.936 -4.596,-8.568 -9.06,-17.207 -13.767,-25.713 -9.343,-16.885 -17.839,-34.278 -29.278,-49.928 -12.753,-17.449 -26.611,-33.893 -43.968,-47.032 -10.89,-8.243 -22.741,-14.613 -36.249,-17.386 -17.237,-3.537 -32.604,0.576 -45.767,12.15 -6.587,5.792 -9.756,13.745 -11.955,22.06 -1.29,4.881 -2.13,9.828 -1.793,14.916 0.037,0.565 -0.18,1.147 -0.364,2.21 -1.016,-1.104 -1.73,-1.817 -2.373,-2.588 -11.713,-14.057 -24.294,-27.179 -39.927,-37 -10.267,-6.45 -21.247,-10.988 -33.348,-12.705 -16.057,-2.277 -40.039,5.868 -48.215,23.701 -3.419,7.457 -5.977,15.11 -5.85,23.444 0.004,0.263 -0.073,0.528 -0.183,1.254 -0.731,-0.637 -1.352,-0.994 -1.721,-1.526 -6.655,-9.611 -13.889,-18.77 -22.074,-27.11 -7.12,-7.255 -14.697,-14.042 -24.229,-18.098 -5.13,-2.182 -10.517,-2.813 -16.002,-1.691 -5.218,1.067 -9.064,4.296 -12.092,8.476 -5.203,7.181 -7.662,15.35 -8.148,24.138 -0.969,17.524 3.695,33.958 9.717,50.142 6.502,17.479 14.782,34.136 23.072,50.804 2.875,5.78 5.286,11.819 7.481,17.894 0.955,2.645 0.996,5.67 1.148,8.539 0.139,2.646 -1.344,4.437 -3.887,5.177 -2.752,0.801 -5.45,0.596 -8.058,-0.649 -5.858,-2.797 -10.959,-6.64 -15.542,-11.202 -18.683,-18.6 -35.16,-39.02 -48.181,-61.916 -6.616,-11.632 -11.545,-24.256 -16.798,-36.618 -4.252,-10.007 -7.938,-20.259 -11.68,-30.475 -1.032,-2.818 -1.641,-5.866 -1.925,-8.858 -0.214,-2.262 0.126,-4.675 0.712,-6.891 0.727,-2.748 -0.062,-4.701 -2.139,-6.363 -4.779,-3.823 -10.253,-4.36 -15.866,-2.785 -9.859,2.766 -16.501,11.109 -17.456,21.379 -0.031,0.334 -0.115,0.663 -0.287,1.627 -0.864,-0.848 -1.496,-1.338 -1.968,-1.952 -9.131,-11.867 -17.884,-24.046 -27.438,-35.561 -17.568,-21.176 -37.251,-40.201 -60.068,-55.761 -15.353,-10.47 -31.824,-18.749 -49.612,-24.247 -14.474,-5.029 -24.282,-5.478 -34.852,-5.028 -10.234,0.435 -27.474,5.549 -36.419,10.413 -12.842,6.984 -23.653,16.217 -31.493,28.675 -7.925,12.592 -12.67,26.342 -15.265,40.972 -1.573,8.871 -0.843,17.75 -1.159,26.625 -0.612,17.22 2.644,33.852 7.417,50.281 5.824,20.052 12.439,39.83 20.316,59.173 9.052,22.226 20.019,43.458 33.423,63.382 10.497,15.604 22.152,30.293 35.055,44.003 9.811,10.425 20.15,20.273 31.122,29.443 15.902,13.289 34.143,21.774 54.573,25.117 11.718,1.917 23.564,1.878 34.942,-2.201 18.41,-6.598 30.09,-19.78 36.509,-38.018 4.835,-13.737 6.824,-27.901 5.708,-42.338 -1.639,-21.223 -7.424,-41.07 -21.5,-57.732 -1.914,-2.266 -3.984,-4.398 -5.987,-6.587 -4.961,-5.421 -11.005,-7.164 -18.191,-5.698 -8.603,1.756 -16.26,5.183 -22.295,11.733 -0.884,0.96 -1.69,2.016 -2.381,3.122 -2.425,3.884 -2.1,6.836 1.315,9.907 5.763,5.181 11.368,10.497 15.75,16.945 10.221,15.041 17.104,31.412 19.707,49.496 1.179,8.193 1.455,16.393 -0.583,24.448 -0.759,2.999 -2.217,5.988 -4.003,8.526 -3.701,5.263 -9.222,4.895 -14.637,3.624 -7.12,-1.671 -13.042,-5.739 -18.953,-9.864 -18.15,-12.669 -32.755,-28.903 -46.564,-45.951 -21.724,-26.819 -37.863,-56.893 -51.321,-88.499 -8.428,-19.792 -15.705,-39.996 -21.356,-60.779 -4.797,-17.64 -7.095,-35.55 -6.05,-53.804 0.931,-16.24 4.417,-31.819 13.606,-45.615 7.776,-11.673 18.329,-19.383 32.361,-21.708 9.946,-1.648 19.639,-0.053 29.145,2.954 12.948,4.097 24.25,11.207 34.888,19.423 18.351,14.172 34.089,30.998 48.841,48.781 16.86,20.325 32.033,41.869 45.686,64.461 2.279,3.772 3.38,8.253 5.051,12.397 8.319,20.637 16.389,41.38 25.032,61.882 13.519,32.069 27.5,63.942 41.139,95.961 6.317,14.83 12.531,29.717 17.047,45.23 0.786,2.703 1.453,5.482 1.749,8.27 0.177,1.675 -0.107,3.613 -0.837,5.117 -0.933,1.924 -0.52,3.088 0.966,4.28 2.786,2.235 6.121,3.604 9.498,3.704 5.046,0.149 10.15,0.679 15.201,-0.739 9.957,-2.795 14.686,-9.966 16.562,-19.456 1.335,-6.757 -0.515,-13.303 -2.207,-19.768 -4.302,-16.436 -10.346,-32.28 -17.081,-47.833 -8.105,-18.718 -16.666,-37.238 -25.021,-55.847 -0.525,-1.167 -0.985,-2.364 -1.475,-3.547 0.144,-0.127 0.287,-0.254 0.431,-0.381 0.526,0.431 1.095,0.82 1.572,1.3 6.865,6.903 13.688,13.844 21.493,19.729 6.436,4.852 13.175,9.071 21.139,10.959 11.385,2.7 20.903,-0.783 26.568,-9.701 2.584,-4.07 4.23,-8.506 5.212,-13.194 1.676,-8.004 1.053,-16.016 0.307,-24.084 -1.735,-18.753 -9.061,-35.702 -16.692,-52.526 -6.205,-13.682 -12.955,-27.115 -19.328,-40.722 -2.427,-5.181 -4.246,-10.582 -4.987,-16.337 -0.899,-6.975 4.941,-9.959 9.906,-8.062 3.354,1.282 6.479,3.662 9.147,6.151 8.058,7.519 14.618,16.359 21.057,25.25 4.815,6.647 9.265,13.557 14.004,20.261 2.252,3.187 3.23,6.773 4.224,10.45 7.274,26.907 18.751,51.722 37.429,72.711 12.678,14.246 27.754,24.977 46.714,29.377 8.673,2.012 17.423,3.018 26.229,1.113 C 72.496,93.284 78.969,85.317 79.352,74.38 79.751,62.971 76.148,52.577 70.551,42.929 53.767,13.993 28.945,-4.804 -2.985,-14.349 c -1.898,-0.567 -2.375,-1.602 -2.777,-3.283 -2.366,-9.894 -3.917,-19.865 -3.588,-30.084 0.16,-4.95 1.024,-9.725 2.886,-14.307 2.903,-7.142 7.285,-9.96 16.078,-9.212 9.047,0.769 16.704,4.966 24.008,9.892 10.833,7.306 20.293,16.194 28.634,26.203 6.003,7.203 11.63,14.723 17.289,22.203 1.036,1.369 1.616,3.178 2.076,4.873 7.281,26.827 18.671,51.571 37.101,72.675 9.884,11.319 21.535,20.385 35.532,26.154 10.736,4.426 21.914,6.456 33.54,5.566 13.48,-1.033 21.74,-10.071 21.806,-23.593 0.051,-10.465 -3.517,-19.859 -8.326,-28.888 -8.988,-16.879 -21.993,-30.091 -37.541,-40.985 -10.832,-7.59 -22.593,-13.217 -35.294,-16.838 -2.484,-0.708 -3.645,-1.907 -4.207,-4.505 -2.117,-9.8 -3.851,-19.621 -3.331,-29.7 0.252,-4.896 0.728,-9.761 2.9,-14.283 3.391,-7.06 8.472,-9.622 16.261,-8.801 7.942,0.837 14.776,4.302 21.366,8.353 12.862,7.906 23.212,18.689 32.986,29.968 12.235,14.118 22.943,29.374 31.563,45.989 4.694,9.048 8.878,18.36 13.474,27.462 2.795,5.536 5.997,10.866 8.899,16.351 1.771,3.348 3.391,6.782 4.905,10.254 0.31,0.708 0.124,1.927 -0.304,2.619 -5.662,9.158 -8.32,19.071 -7.228,29.8 1.237,12.157 9.521,24.104 21.498,26.465 4.942,0.974 9.881,0.947 14.769,-0.269 5.609,-1.395 9.75,-6.366 10.342,-12.129 0.788,-7.672 -1.823,-14.542 -5.076,-21.218 -1.628,-3.343 -3.531,-6.56 -5.459,-9.743 -0.779,-1.285 -0.716,-2.022 0.306,-3.192 15.871,-18.156 28.464,-38.254 35.909,-61.344 3.837,-11.899 5.062,-24.118 4.066,-36.553 -0.216,-2.697 -0.874,-5.359 -1.431,-8.641 0.984,0.711 1.613,0.99 1.995,1.468 4.914,6.144 9.845,12.276 14.638,18.514 0.974,1.267 1.586,2.902 2.044,4.462 6.408,21.84 15.906,42.16 29.796,60.279 10.214,13.323 22.415,24.403 37.757,31.57 11.675,5.455 23.992,8.063 36.952,7.15 11.252,-0.793 19.286,-7.331 21.486,-17.904 1.439,-6.917 0.314,-13.735 -1.787,-20.385 C 459.384,44.945 452.261,33.537 443.129,23.36 426.799,5.163 407.038,-7.669 383.424,-14.343 c -1.48,-0.419 -2.149,-1.14 -2.507,-2.575 -2.84,-11.358 -4.734,-22.828 -3.592,-34.573 0.324,-3.329 1.076,-6.688 2.144,-9.86 2.551,-7.578 8.686,-10.952 16.937,-9.923 7.713,0.963 14.563,4.05 21.008,8.168 9.83,6.281 18.744,13.721 26.331,22.555 7.815,9.101 15.273,18.518 22.619,28.005 1.83,2.364 2.981,5.425 3.838,8.343 7.612,25.907 18.975,49.844 36.842,70.344 9.311,10.684 20.146,19.46 33.407,24.858 10.158,4.135 20.735,6.332 31.716,5.297 9.823,-0.926 18.595,-4.194 23.994,-13.287 3.663,-6.17 4.123,-12.792 2.28,-19.568 -1.275,-4.688 -5.696,-7.698 -10.622,-7.666 -5.072,0.033 -9.448,3.026 -10.778,7.517 -1.257,4.242 -0.042,7.869 3.01,10.97 2.653,2.696 2.383,4.043 -1.07,5.735 -2.268,1.112 -4.513,0.91 -6.82,0.102 -5.46,-1.915 -9.51,-5.829 -13.5,-9.718 -6.67,-6.5 -11.804,-14.225 -16.645,-22.115 -9.248,-15.071 -17.412,-30.731 -23.929,-47.169 -5.779,-14.577 -9.094,-29.769 -9.297,-45.52 -0.079,-6.083 0.389,-12.146 2.866,-17.837 3.026,-6.953 8.584,-9.888 16.133,-8.997 8.329,0.983 15.538,4.598 22.404,9.06 10.795,7.015 20.132,15.738 28.461,25.467 6.411,7.488 12.337,15.394 18.362,23.204 1.057,1.369 1.816,3.111 2.246,4.799 5.988,23.511 15.867,45.253 30.015,64.943 9.814,13.659 21.638,25.285 36.959,32.793 11.414,5.594 23.526,8.372 36.247,7.27 8.415,-0.729 16.255,-3.281 21.838,-10.278 5.505,-6.899 6.717,-14.682 4.211,-22.988 -1.321,-4.377 -4.657,-6.712 -9.222,-7.131 -4.845,-0.445 -8.733,1.331 -11.191,5.54 -2.342,4.012 -1.59,7.962 1.043,11.618 0.602,0.835 1.343,1.574 2.053,2.326 1.581,1.678 1.516,1.991 -0.138,3.457 -3.033,2.689 -6.492,2.554 -9.651,0.858 -3.363,-1.806 -6.576,-4.063 -9.441,-6.591 -9.651,-8.514 -16.587,-19.165 -22.955,-30.198 -8.416,-14.583 -16.243,-29.478 -22.098,-45.297 -5.559,-15.019 -8.542,-30.527 -7.375,-46.623 0.44,-6.071 1.285,-12.139 5.438,-17.04 4.623,-5.455 11.349,-7.564 18.402,-2.755 4.396,2.997 7.966,6.787 11.219,10.937 8.723,11.129 15.691,23.356 22.183,35.853 7.244,13.946 14.723,27.801 21.247,42.086 7.665,16.784 15.873,33.374 21.643,50.969 1.066,3.253 1.877,6.651 2.26,10.043 0.215,1.903 -0.375,4.07 -1.165,5.871 -1.077,2.452 -1.138,3.24 1.125,4.779 3.079,2.095 6.535,3.219 10.189,3.772 5.438,0.824 10.681,0.054 15.838,-1.788 8.836,-3.155 12.919,-10.069 14.909,-18.645 1.753,-7.553 0.516,-14.967 -1.454,-22.261 -3.953,-14.64 -9.995,-28.461 -16.97,-41.882 -9.257,-17.812 -18.667,-35.547 -27.873,-53.386 -3,-5.815 -5.588,-11.848 -6.836,-18.342 -0.194,-1.007 -0.283,-2.049 -0.289,-3.075 -0.032,-4.991 3.467,-7.794 8.192,-6.034 2.886,1.076 5.716,2.838 7.994,4.922 10.504,9.613 18.735,21.162 27.101,32.579 0.49,0.668 0.939,1.365 1.438,2.026 4.171,5.537 7.245,11.569 9.791,18.079 8.605,22.005 17.488,43.908 26.651,65.688 15.474,36.778 31.373,73.377 46.799,110.175 3.877,9.25 6.696,18.948 9.864,28.485 0.685,2.065 0.987,4.317 1.073,6.498 0.056,1.432 -0.344,3.017 -0.992,4.306 -0.773,1.541 -0.557,2.515 0.678,3.59 2.881,2.507 6.339,3.794 10.003,4.032 5.342,0.347 10.733,0.655 15.993,-1.014 8.769,-2.783 15.219,-11.119 15.669,-20.384 0.36,-7.407 -1.265,-14.515 -3.252,-21.567 -5.845,-20.747 -13.924,-40.669 -22.673,-60.312 -8.664,-19.455 -17.736,-38.728 -26.647,-58.073 -1.5,-3.255 -3.1,-6.465 -4.639,-9.702 -0.281,-0.59 -0.494,-1.213 -0.738,-1.82 0.163,-0.11 0.325,-0.219 0.488,-0.329" style="fill:#e06aa3;fill-opacity:1;fill-rule:nonzero;stroke:none" transform="matrix(1.3333333,0,0,-1.3333333,778.30773,501.1672)" clip-path="url(#clipPath2)"></path>
    <path id="path3" d="m 0,0 c 0.159,-0.187 0.319,-0.375 0.478,-0.562 5.017,2.234 10.127,4.281 15.031,6.742 11.567,5.805 21.253,13.997 29.744,23.732 7.885,9.041 14.336,18.866 18.046,30.364 1.553,4.812 2.183,9.699 1.067,14.664 -0.967,4.302 -4.169,6.426 -8.317,5.105 C 53.025,79.082 50.087,77.53 47.449,75.74 41.324,71.586 36.608,65.959 32.235,60.061 18.877,42.04 9.033,22.101 0.399,1.509 0.199,1.034 0.13,0.504 0,0 M 52.022,96.563 C 55.627,96.053 59.319,95.876 62.82,94.968 72.253,92.523 78.056,85.563 79.108,75.823 80.158,66.096 77.372,57.127 73.373,48.464 64.662,29.589 50.911,15.036 34.155,3.108 22.989,-4.841 10.852,-10.804 -2.39,-14.415 c -2.126,-0.58 -3.049,-1.649 -3.567,-3.853 -2.105,-8.955 -3.613,-17.979 -3.579,-27.186 0.024,-6.23 0.831,-12.35 3.546,-18.11 2.615,-5.547 6.901,-8.158 12.976,-8.14 8.171,0.024 15.273,3.258 22.119,7.251 8.344,4.867 15.631,11.068 22.473,17.851 17.936,17.778 32.711,37.892 44.503,60.193 2.346,4.437 4.175,9.148 6.238,13.735 1.892,4.209 6.353,5.404 9.906,2.649 2.087,-1.618 2.822,-4.928 1.455,-7.957 -1.785,-3.956 -3.707,-7.856 -5.729,-11.697 C 97.239,-10.033 84.592,-29.067 69.288,-46.294 57.761,-59.268 45.222,-71.038 29.942,-79.546 19.448,-85.389 8.269,-89.239 -3.81,-89.613 c -7.375,-0.227 -14.42,1.747 -21.261,4.567 -15.614,6.436 -23.453,18.748 -26.525,34.688 -2.213,11.483 -1.503,22.926 0.975,34.284 5.092,23.34 14.114,45.069 27.21,65.042 9.062,13.822 20.15,25.725 34.217,34.668 12.604,8.012 26.271,12.248 41.216,12.927" style="fill:#e06aa3;fill-opacity:1;fill-rule:nonzero;stroke:none" transform="matrix(1.3333333,0,0,-1.3333333,2103.8996,500.7388)" clip-path="url(#clipPath4)"></path>
    <path id="path5" d="m 0,0 c 0.324,0.223 0.771,0.372 0.956,0.678 8.029,13.352 15.891,26.805 24.079,40.06 11.742,19.009 23.605,37.947 35.625,56.783 17.313,27.131 35.011,54.013 54.096,79.959 14.564,19.797 30.072,38.843 46.326,57.289 5.558,6.308 9.896,5.853 20.673,-1.555 4.148,-2.851 7.978,-6.18 11.389,-9.882 4.411,-4.786 4.872,-6.678 1.792,-10.177 -7.092,-8.058 -12.54,-17.226 -18.05,-26.344 C 161.085,160.663 147.023,133.592 134.248,105.874 126.176,88.36 118.823,70.523 112.333,52.361 107.418,38.604 103.116,24.656 100.08,10.342 97.958,0.335 97.282,-9.774 97.902,-19.941 c 0.193,-3.165 1.196,-6.333 2.179,-9.387 1.158,-3.594 3.943,-6.434 7.501,-7.697 6.911,-2.453 14.04,-3.035 21.224,-2.025 3.595,0.505 7.126,1.508 10.654,2.412 1.755,0.45 3.611,0.482 4.494,-1.001 0.646,-1.085 0.739,-3.082 0.161,-4.206 -3.303,-6.432 -8.088,-11.119 -15.843,-11.553 -6.05,-0.339 -12.122,-0.92 -18.158,-0.701 -9.423,0.341 -18.605,2.093 -27.005,6.754 -8.358,4.638 -13.263,11.983 -15.721,20.852 -1.601,5.771 -2.835,11.798 -3.048,17.752 -0.22,6.11 0.74,12.31 1.64,18.403 4.245,28.755 14.289,55.848 24.91,82.73 3.201,8.102 6.894,15.992 10.486,23.929 0.277,0.612 0.476,1.166 0.931,2.311 -0.795,-0.364 -1.246,-0.421 -1.415,-0.669 C 86.208,96.465 71.321,75.099 56.948,53.397 44.27,34.252 32.16,14.735 19.814,-4.627 17.892,-7.641 16.067,-10.716 14.169,-13.746 8.734,-22.423 1.86,-29.625 -7.569,-34.018 c -6.563,-3.058 -13.221,-4.077 -20.007,-0.298 -5.75,3.202 -8.596,8.186 -9.381,14.437 -1.149,9.153 1.201,17.972 3.476,26.695 3.44,13.193 7.655,26.179 12.92,38.755 10.195,24.352 20.836,48.52 31.455,72.694 3.091,7.037 6.617,13.884 9.889,20.844 0.575,1.222 0.879,2.569 0.896,3.881 -3.051,-4.363 -5.992,-8.807 -9.174,-13.073 C 0.58,113.93 -11.323,97.925 -23.434,82.078 -31.786,71.15 -40.276,60.314 -49.061,49.729 -56.836,40.361 -65.025,31.327 -73.175,22.274 -81.648,12.863 -90.002,3.32 -98.94,-5.641 c -10.224,-10.249 -21.608,-19.135 -34.825,-25.469 -5.988,-2.869 -12.44,-4.95 -19.074,-5.256 -19.183,-0.884 -32.275,10.132 -38.928,32.127 -1.415,4.679 -2.321,9.534 -2.916,14.386 -0.514,4.186 -1.173,8.367 -1.312,12.564 -0.418,12.649 1.77,25.015 5.19,37.127 2.364,8.374 7.562,27.666 23.37,49.003 7.711,10.156 17.029,18.56 28.482,24.389 9.32,4.743 19.232,7.399 29.813,7.855 5.483,0.237 14.139,-1.503 18.756,-4.468 10.383,-6.667 19.165,-19.277 19.638,-32.627 1.133,-7.141 0.318,-13.976 -3.326,-20.304 -5.059,-8.788 -12.023,-15.697 -21.105,-20.349 -1.874,-0.96 -3.966,-1.647 -6.038,-2.045 -5.037,-0.967 -8.435,2.954 -7.261,8.33 1.17,5.354 2.664,10.642 3.705,16.019 1.593,8.232 3.288,16.897 -0.362,24.743 -4.704,10.108 -20.606,3.751 -25.443,1.691 -10.756,-4.581 -19.204,-12.304 -25.901,-21.808 -2.406,-3.414 -4.29,-7.191 -6.455,-10.776 -7.173,-11.881 -10.57,-25.065 -13.135,-38.474 -1.723,-9.008 -1.611,-18.177 -0.797,-27.285 0.644,-7.21 2.889,-14.034 7.157,-19.932 4.958,-6.852 15.582,-12.924 27.829,-5.63 8.058,4.799 15.373,10.461 22.189,16.806 18.851,17.547 35.755,36.86 51.7,57.013 12.806,16.186 25.575,32.407 38.078,48.825 14.213,18.663 28.1,37.571 42.152,56.356 11.421,15.269 22.824,30.551 34.361,45.733 3.211,4.226 10.294,12.631 13.531,16.838 2.122,2.757 3.802,5.692 4.792,9.068 0.327,1.113 0.72,2.232 1.262,3.255 1.504,2.838 4.173,3.829 7.152,2.634 6.423,-2.575 11.31,-7.093 15.227,-12.607 1.806,-2.543 3.157,-5.418 4.573,-8.224 0.909,-1.803 0.977,-3.909 0.206,-5.775 C 88.055,205.295 83.079,192.361 77.479,179.701 65.732,153.141 53.604,126.748 41.746,100.236 33.785,82.436 25.842,64.623 18.23,46.674 13.197,34.805 8.784,22.677 4.051,10.682 2.685,7.221 1.171,3.818 -0.275,0.389 -0.184,0.259 -0.092,0.129 0,0" style="fill:#55c1ef;fill-opacity:1;fill-rule:nonzero;stroke:none" transform="matrix(1.3333333,0,0,-1.3333333,2517.7941,572.4604)" clip-path="url(#clipPath6)"></path>
    <path id="path7" d="m 0,0 c 2.177,0.836 3.767,1.425 5.339,2.054 25.458,10.18 43.878,27.877 55.618,52.524 2.943,6.179 4.83,12.734 3.803,19.815 -0.631,4.348 -3.004,7.041 -7.122,6.589 C 55.071,80.7 52.384,79.724 50.167,78.376 44.096,74.681 39.164,69.611 34.754,64.092 27.415,54.905 21.039,45.081 15.905,34.48 10.827,23.996 5.752,13.511 0.714,3.008 0.362,2.274 0.319,1.392 0,0 m -450.439,-31.78 c 0.366,0.498 1.042,0.99 1.051,1.495 0.16,8.821 2.02,17.345 4.454,25.764 6.213,21.493 15.235,41.683 28.193,59.999 8.571,12.115 18.674,22.712 31.455,30.477 10.304,6.26 21.486,9.808 33.557,10.641 7.364,0.508 14.492,-0.273 21.184,-3.421 11.645,-5.477 16.062,-16.45 13.669,-28.331 -1.147,-5.695 -6.592,-9.346 -12.168,-8.584 -5.77,0.789 -9.953,5.338 -9.765,10.762 0.105,3.036 1.575,5.486 3.578,7.711 0.805,0.894 1.794,2.089 1.781,3.136 -0.017,1.432 -2.93,3.063 -4.622,3.236 -3.631,0.37 -6.813,-0.782 -9.74,-2.774 -7.998,-5.444 -14.226,-12.609 -19.629,-20.523 -12.189,-17.853 -22.038,-36.971 -30.068,-57.002 -5.446,-13.585 -8.815,-27.727 -8.824,-42.45 -0.003,-6.596 0.417,-13.242 2.976,-19.498 1.459,-3.565 3.846,-6.314 7.172,-8.292 4.151,-2.469 8.252,-2.17 12.378,0.004 4.103,2.162 7.415,5.277 10.374,8.773 9.018,10.653 16.018,22.642 22.493,34.913 7.688,14.569 15.442,29.135 22.337,44.084 8.049,17.451 16.523,34.758 22.596,53.057 1.056,3.184 1.666,6.536 2.239,9.852 0.391,2.265 0.089,4.525 -1.359,6.505 -1.05,1.435 -0.708,2.712 0.679,3.76 3.053,2.305 6.567,3.487 10.283,4.064 5.847,0.909 11.51,0.136 17.017,-2.03 7.106,-2.795 10.964,-8.324 12.988,-15.357 2.569,-8.925 1.381,-17.714 -0.996,-26.496 -3.713,-13.718 -9.437,-26.623 -15.857,-39.218 -6.327,-12.41 -12.999,-24.646 -19.549,-36.943 -5.482,-10.292 -10.686,-20.714 -14.596,-31.721 -0.799,-2.25 -1.342,-4.661 -1.551,-7.037 -0.429,-4.898 3.21,-7.787 7.977,-6.528 3.718,0.982 6.691,3.245 9.38,5.847 10.016,9.693 18.263,20.849 26.366,32.12 10.938,15.214 20.314,31.38 29.127,47.886 0.941,1.76 1.634,3.651 2.542,5.431 5.67,11.106 11.38,22.191 17.05,33.296 1.944,3.808 3.786,7.666 5.727,11.475 0.871,1.709 0.609,3.081 -0.352,4.79 -8.206,14.595 -10.434,29.459 -0.917,44.365 4.652,7.286 11.62,10.968 20.3,11.314 3.951,0.157 7.89,0.115 11.582,-1.516 5.21,-2.302 7.905,-6.352 8.349,-12.051 0.599,-7.673 -1.808,-14.551 -5.322,-21.156 -1.588,-2.984 -3.278,-5.915 -4.976,-8.839 -0.844,-1.453 -0.674,-2.514 0.479,-3.852 15.411,-17.885 27.811,-37.525 35.173,-60.148 3.922,-12.054 5.145,-24.37 4.359,-36.94 -0.129,-2.05 -0.684,-4.072 -0.993,-6.114 -0.117,-0.772 -0.095,-1.566 -0.169,-2.983 1.026,0.832 1.662,1.198 2.103,1.727 12.065,14.501 23.681,29.348 32.557,46.07 2.86,5.388 4.701,11.314 7.043,16.98 7.478,18.093 14.935,36.196 22.472,54.264 5.787,13.872 11.683,27.697 17.529,41.544 0.188,0.445 0.352,0.899 0.54,1.343 0.611,1.441 0.178,1.981 -1.417,1.958 -5.454,-0.079 -10.909,-0.057 -16.364,-0.077 -6.49,-0.023 -12.984,0.078 -19.469,-0.102 -10.807,-0.298 -21.487,-1.627 -31.398,-6.232 -6.258,-2.908 -11.669,-6.968 -13.352,-14.297 -0.431,-1.875 -0.58,-3.819 -1.081,-5.671 -1.074,-3.969 -4.388,-5.126 -7.652,-2.646 -3.263,2.48 -4.797,6.114 -5.45,9.95 -1.62,9.518 -1.065,18.847 3.673,27.541 3.547,6.508 9.189,10.734 15.694,13.92 8.014,3.923 16.501,6.449 25.403,6.616 9.56,0.179 19.139,-0.31 28.701,-0.701 6.193,-0.254 12.377,-0.8 18.556,-1.32 4.456,-0.376 8.906,-0.862 13.341,-1.436 1.243,-0.161 1.961,0.023 2.399,1.235 3.815,10.561 7.842,21.054 10.142,32.093 0.561,2.692 1.329,5.366 -0.623,7.936 -0.308,0.406 0.091,1.758 0.58,2.288 2.188,2.373 5.121,3.778 8.191,4.057 5.608,0.509 11.303,0.986 16.864,-0.506 9.682,-2.599 14.445,-9.6 16.384,-18.887 1.409,-6.747 -0.43,-13.279 -1.846,-19.798 -0.844,-3.886 -1.904,-7.725 -2.961,-11.962 3.836,-0.266 7.461,-0.8 11.072,-0.715 11.169,0.265 22.349,0.516 33.494,1.246 10.924,0.715 21.793,2.164 32.335,5.313 2.619,0.782 5.149,1.949 7.602,3.175 3.706,1.851 6.187,4.573 6.632,9.04 0.352,3.541 2.532,4.494 6.132,3.237 4.317,-1.507 8.747,-7.868 8.144,-12.413 -0.252,-1.9 -1.37,-3.924 -2.656,-5.401 -3.705,-4.256 -8.677,-6.757 -13.775,-8.943 -11.331,-4.86 -23.22,-7.837 -35.32,-9.895 -11.055,-1.88 -22.15,-3.622 -33.29,-4.87 -8.478,-0.949 -17.051,-1.083 -25.587,-1.449 -1.846,-0.08 -2.832,-0.674 -3.556,-2.408 -4.755,-11.383 -9.429,-22.805 -14.484,-34.054 -6.077,-13.524 -12.481,-26.902 -18.793,-40.319 -6.809,-14.475 -13.724,-28.9 -20.506,-43.388 -9.059,-19.352 -18.506,-38.54 -25.639,-58.731 -2.433,-6.887 -4.632,-13.863 -5.293,-21.183 -0.14,-1.555 0.295,-3.298 0.926,-4.755 0.926,-2.141 2.869,-2.825 5.165,-2.309 3.34,0.751 6.031,2.583 8.483,4.897 7.263,6.853 13.567,14.546 19.377,22.614 6.407,8.898 12.575,17.977 18.591,27.145 1.618,2.467 2.578,5.467 3.383,8.35 7.377,26.427 18.574,50.887 36.827,71.704 9.2,10.492 19.895,19.118 32.674,24.924 8.213,3.732 16.841,5.946 25.865,6.707 5.422,0.458 10.753,0.232 15.983,-1.226 C 71.917,92.955 76.829,87.032 78.431,78.47 80.168,69.191 77.848,60.39 74.335,51.874 68.353,37.373 58.942,25.285 47.519,14.727 35.438,3.56 21.775,-5.157 6.275,-10.843 c -3.037,-1.114 -6.146,-2.04 -9.25,-2.957 -1.491,-0.441 -2.295,-1.3 -2.662,-2.806 -2.223,-9.128 -3.928,-18.37 -3.904,-27.76 0.014,-5.04 0.805,-10.188 2.031,-15.09 2.071,-8.283 9.782,-12.577 18.394,-11.301 10.714,1.586 19.466,7.06 27.779,13.448 16.437,12.631 29.463,28.416 41.275,45.265 8.531,12.167 15.453,25.203 21.893,38.632 6.306,13.15 11.118,26.849 16.909,40.169 1.041,2.394 1.742,4.937 2.574,7.419 0.524,1.561 0.158,2.518 -1.438,3.484 -9.933,6.017 -16.845,14.584 -18.436,26.17 -1.394,10.152 0.966,19.787 9.252,26.803 6.361,5.387 18.88,6.942 25.83,-0.89 3.771,-4.25 6.168,-9.107 6.234,-14.926 0.1,-8.841 -0.313,-17.64 -2.072,-26.333 -0.294,-1.454 0.135,-2.439 1.634,-2.821 0.934,-0.239 1.874,-0.661 2.808,-0.654 5.568,0.043 11.268,-0.512 16.662,0.514 4.462,0.848 8.683,3.375 12.785,5.578 3.957,2.125 7.657,4.705 12.368,4.821 9.484,0.233 21.446,-2.967 25.906,-14.598 3.111,-8.115 3.216,-16.238 1.34,-24.546 C 211.702,45.767 207.932,35.147 203.002,25.062 195.101,8.897 186.648,-7 178.303,-22.945 c -5.599,-10.7 -11.391,-21.299 -15.083,-32.865 -0.711,-2.228 -1.244,-4.513 -1.839,-6.777 -1.301,-4.952 2.701,-7.46 6.161,-7.468 2.989,-0.007 5.636,1.187 7.666,3.182 5.109,5.023 10.379,9.956 14.913,15.478 15.324,18.665 28.404,38.886 39.983,60.047 4.526,8.273 8.187,17.016 12.335,25.5 2.18,4.457 4.56,8.816 6.853,13.218 3.377,6.483 6.749,12.969 10.144,19.444 0.584,1.114 0.752,2.058 -0.023,3.252 -4.845,7.459 -7.286,15.624 -7.519,24.563 -0.203,7.822 1.84,14.866 6.248,21.23 4.744,6.85 11.372,10.562 19.695,10.836 3.338,0.109 6.79,-0.104 10.033,-0.85 7.795,-1.793 11.086,-9.252 10.477,-16.381 -0.744,-8.722 -4.784,-16.169 -8.976,-23.565 -3.194,-5.636 -2.84,-4.264 0.631,-8.407 13.21,-15.767 24.215,-32.878 31.383,-52.255 2.772,-7.492 6.468,-17.509 6.73,-25.659 0.276,-8.6 0.422,-9.457 -0.808,-19.01 -0.774,-6.015 -2.047,-11.782 -3.942,-17.477 -3.762,-11.309 -9.484,-21.436 -18.181,-29.7 -6.465,-6.143 -14.061,-10.668 -21.99,-14.616 -11.104,-5.53 -22.534,-9.692 -35.32,-8.012 -5.546,0.729 -10.617,2.431 -14.834,6.186 -11.56,10.295 -13.831,23.67 -12.286,38.146 1.199,11.232 7.383,19.378 16.669,25.388 4.576,2.963 9.433,4.816 15.032,3.738 5.208,-1.003 9.447,-5.413 9.564,-10.019 0.127,-5.051 -3.06,-9.49 -7.989,-11.129 -4.404,-1.464 -9.299,0.224 -12.249,4.227 -0.635,0.862 -1.266,1.726 -2.007,2.737 -2.891,-4.364 -4.83,-8.819 -6.125,-13.553 -1.864,-6.815 -1.933,-13.552 0.538,-20.308 3.478,-9.506 15.536,-15.69 25.626,-9.769 5.052,2.964 9.301,6.724 12.906,11.181 9.454,11.685 13.676,25.367 14.397,40.179 0.61,12.538 -1.03,24.883 -3.963,37.07 -3.126,12.992 -7.882,25.387 -13.624,37.425 -0.388,0.813 -0.834,1.597 -1.486,2.84 -0.892,-1.678 -1.517,-2.872 -2.158,-4.058 -5.868,-10.86 -11.8,-21.686 -17.589,-32.588 -3.817,-7.189 -7.124,-14.664 -11.206,-21.693 -5.956,-10.256 -12.2,-20.36 -18.691,-30.286 -8.622,-13.187 -18.022,-25.811 -29.302,-36.902 -6.817,-6.702 -13.964,-13.024 -23.039,-16.551 -5.818,-2.261 -11.931,-2.708 -17.833,-0.651 -8.644,3.013 -13.157,9.926 -15.543,18.333 -2.166,7.635 -2.392,15.441 -1.794,23.358 0.779,10.306 2.861,20.328 6.026,30.105 6.165,19.042 13.974,37.446 22.014,55.76 4.43,10.091 8.566,20.311 12.787,30.493 0.288,0.694 0.174,1.556 0.246,2.339 -0.7,-0.082 -1.44,-0.047 -2.096,-0.265 -6.485,-2.147 -13.202,-3.012 -19.96,-2.846 -4.368,0.107 -8.714,1.169 -13.064,1.834 -1.173,0.179 -1.958,-0.057 -2.422,-1.297 -1.184,-3.161 -2.4,-6.314 -3.727,-9.417 C 125.325,48.223 120.065,35.627 114.44,23.197 112.238,18.331 109.045,13.923 106.531,9.186 93.005,-16.296 76.423,-39.502 55.497,-59.464 43.184,-71.209 29.51,-80.804 12.999,-85.846 c -10.69,-3.264 -21.389,-3.906 -32.11,-0.381 -8.301,2.73 -15.955,6.62 -21.671,13.505 -5.932,7.147 -8.99,15.561 -10.526,24.605 -0.464,2.73 -0.881,5.468 -1.412,8.779 -0.846,-0.92 -1.308,-1.308 -1.631,-1.789 -9.078,-13.519 -19.175,-26.149 -31.855,-36.523 -6.573,-5.378 -13.442,-10.164 -22.27,-11.014 -8.171,-0.787 -15.117,1.438 -20.417,8.002 -5.668,7.018 -7.136,15.387 -7.711,24.002 -0.557,8.318 0.456,16.503 2.613,24.554 0.213,0.793 0.136,1.664 0.23,3.025 -0.869,-0.696 -1.341,-0.963 -1.668,-1.352 -2.927,-3.487 -5.813,-7.009 -8.742,-10.495 -14.31,-17.033 -30.469,-31.667 -51.149,-40.81 -11.038,-4.88 -22.047,-9.035 -34.437,-7.504 -5.563,0.687 -10.611,2.439 -14.835,6.165 -11.549,10.188 -13.859,23.463 -12.397,37.896 1.123,11.093 7.117,19.198 16.125,25.292 4.677,3.164 9.681,5.238 15.537,4.109 5.452,-1.05 9.575,-5.437 9.639,-10.367 0.063,-4.911 -3.236,-9.216 -8.34,-10.881 -4.185,-1.366 -9.326,0.6 -12.114,4.619 -0.528,0.762 -1.099,1.494 -1.795,2.436 -0.785,-1.342 -1.408,-2.388 -2.015,-3.444 -5.58,-9.712 -6.973,-19.915 -3.417,-30.624 2.843,-8.565 14.754,-15.314 24.415,-10.092 5.592,3.023 10.262,6.994 14.152,11.889 9.157,11.526 13.333,24.94 14.22,39.436 0.605,9.882 -0.448,19.684 -2.211,29.42 -2.945,16.267 -8.749,31.563 -15.658,46.488 -0.256,0.554 -0.744,1.001 -1.314,1.747 -1.756,-3.26 -3.296,-6.173 -4.885,-9.059 -5.551,-10.086 -11.166,-20.136 -16.658,-30.254 -2.336,-4.304 -4.365,-8.774 -6.641,-13.112 -8.189,-15.609 -17.666,-30.429 -27.816,-44.817 -9.334,-13.231 -19.472,-25.788 -32.161,-36.027 -6.503,-5.248 -13.395,-9.711 -22.138,-10.269 -8.88,-0.568 -16.304,2.007 -21.058,9.879 -1.973,3.267 -3.477,6.89 -4.709,10.516 -1.91,5.617 -1.949,11.515 -1.743,17.396 0.041,1.166 0.006,2.334 0.006,3.501 -0.327,0.136 -0.654,0.271 -0.981,0.407 -0.218,-0.432 -0.399,-0.886 -0.659,-1.291 -1.79,-2.783 -3.505,-5.621 -5.413,-8.321 -5.706,-8.073 -11.638,-15.939 -19.644,-21.982 -7.952,-6.002 -16.641,-9.964 -26.753,-10.28 -6.234,-0.195 -12.147,1.236 -17.956,3.39 -13.495,5.003 -22.943,13.859 -27.424,27.809 -1.856,5.78 -2.642,11.662 -3.086,17.652 -0.051,0.693 -0.624,1.347 -0.955,2.02 z" style="fill:#55c1ef;fill-opacity:1;fill-rule:nonzero;stroke:none" transform="matrix(1.3333333,0,0,-1.3333333,3283.6585,487.5)" clip-path="url(#clipPath8)"></path>
  </g>
</svg>
